<svg width="258" height="58" viewBox="0 0 258 58" fill="none" xmlns="http://www.w3.org/2000/svg">
<g filter="url(#filter0_d_0_1479)">
<path d="M11.4618 17V1.468H14.9158V17H11.4618ZM17.5991 17V6.308H20.9651V17H17.5991ZM24.4411 17V10.752C24.4411 10.2093 24.2725 9.79133 23.9351 9.498C23.6125 9.19 23.2091 9.036 22.7251 9.036C22.3878 9.036 22.0871 9.10933 21.8231 9.256C21.5591 9.388 21.3465 9.57867 21.1851 9.828C21.0385 10.0773 20.9651 10.3853 20.9651 10.752L19.6671 10.18C19.6671 9.32933 19.8505 8.60333 20.2171 8.002C20.5838 7.386 21.0825 6.91667 21.7131 6.594C22.3438 6.25667 23.0551 6.088 23.8471 6.088C24.5951 6.088 25.2625 6.25667 25.8491 6.594C26.4505 6.93133 26.9271 7.40067 27.2791 8.002C27.6311 8.60333 27.8071 9.322 27.8071 10.158V17H24.4411ZM31.2831 17V10.752C31.2831 10.2093 31.1145 9.79133 30.7771 9.498C30.4545 9.19 30.0511 9.036 29.5671 9.036C29.2298 9.036 28.9291 9.10933 28.6651 9.256C28.4011 9.388 28.1885 9.57867 28.0271 9.828C27.8805 10.0773 27.8071 10.3853 27.8071 10.752L25.8711 10.488C25.9005 9.57867 26.1131 8.80133 26.5091 8.156C26.9198 7.496 27.4551 6.99 28.1151 6.638C28.7898 6.27133 29.5451 6.088 30.3811 6.088C31.2025 6.088 31.9285 6.264 32.5591 6.616C33.2045 6.95333 33.7105 7.44467 34.0771 8.09C34.4585 8.72067 34.6491 9.48333 34.6491 10.378V17H31.2831ZM42.9662 17.22C42.2475 17.22 41.5875 17.0807 40.9862 16.802C40.3848 16.5233 39.8935 16.142 39.5122 15.658C39.1308 15.1593 38.9108 14.5947 38.8522 13.964V9.454C38.9108 8.82333 39.1308 8.25133 39.5122 7.738C39.8935 7.22467 40.3848 6.82133 40.9862 6.528C41.5875 6.23467 42.2475 6.088 42.9662 6.088C43.9782 6.088 44.8728 6.33 45.6502 6.814C46.4422 7.298 47.0582 7.958 47.4982 8.794C47.9528 9.63 48.1802 10.5833 48.1802 11.654C48.1802 12.7247 47.9528 13.678 47.4982 14.514C47.0582 15.35 46.4422 16.01 45.6502 16.494C44.8728 16.978 43.9782 17.22 42.9662 17.22ZM42.3502 14.184C42.8342 14.184 43.2522 14.074 43.6042 13.854C43.9708 13.634 44.2568 13.3333 44.4622 12.952C44.6675 12.5707 44.7702 12.138 44.7702 11.654C44.7702 11.1553 44.6675 10.7153 44.4622 10.334C44.2568 9.95267 43.9708 9.65933 43.6042 9.454C43.2522 9.234 42.8415 9.124 42.3722 9.124C41.9028 9.124 41.4848 9.234 41.1182 9.454C40.7662 9.65933 40.4875 9.95267 40.2822 10.334C40.0768 10.7153 39.9742 11.1553 39.9742 11.654C39.9742 12.138 40.0695 12.5707 40.2602 12.952C40.4655 13.3333 40.7515 13.634 41.1182 13.854C41.4848 14.074 41.8955 14.184 42.3502 14.184ZM36.8062 21.51V6.308H40.1722V9.058L39.6222 11.654L40.1282 14.25V21.51H36.8062ZM49.8901 17V6.308H53.2561V17H49.8901ZM53.2561 11.126L51.8481 10.026C52.1268 8.77933 52.5961 7.81133 53.2561 7.122C53.9161 6.43267 54.8328 6.088 56.0061 6.088C56.5195 6.088 56.9668 6.16867 57.3481 6.33C57.7441 6.47667 58.0888 6.71133 58.3821 7.034L56.3801 9.564C56.2335 9.40267 56.0501 9.278 55.8301 9.19C55.6101 9.102 55.3608 9.058 55.0821 9.058C54.5248 9.058 54.0775 9.234 53.7401 9.586C53.4175 9.92333 53.2561 10.4367 53.2561 11.126ZM64.126 17.242C63.026 17.242 62.0287 17 61.134 16.516C60.254 16.0173 59.5574 15.3427 59.044 14.492C58.5307 13.6413 58.274 12.688 58.274 11.632C58.274 10.576 58.5307 9.63 59.044 8.794C59.5574 7.958 60.254 7.298 61.134 6.814C62.014 6.31533 63.0114 6.066 64.126 6.066C65.2407 6.066 66.238 6.308 67.118 6.792C67.998 7.276 68.6947 7.94333 69.208 8.794C69.7214 9.63 69.978 10.576 69.978 11.632C69.978 12.688 69.7214 13.6413 69.208 14.492C68.6947 15.3427 67.998 16.0173 67.118 16.516C66.238 17 65.2407 17.242 64.126 17.242ZM64.126 14.184C64.61 14.184 65.0354 14.0813 65.402 13.876C65.7687 13.656 66.0474 13.3553 66.238 12.974C66.4434 12.578 66.546 12.1307 66.546 11.632C66.546 11.1333 66.4434 10.7007 66.238 10.334C66.0327 9.95267 65.7467 9.65933 65.38 9.454C65.028 9.234 64.61 9.124 64.126 9.124C63.6567 9.124 63.2387 9.234 62.872 9.454C62.5054 9.65933 62.2194 9.95267 62.014 10.334C61.8087 10.7153 61.706 11.1553 61.706 11.654C61.706 12.138 61.8087 12.578 62.014 12.974C62.2194 13.3553 62.5054 13.656 62.872 13.876C63.2387 14.0813 63.6567 14.184 64.126 14.184ZM74.719 17L70.187 6.308H73.817L76.897 15.218H75.313L78.393 6.308H81.957L77.425 16.978L74.719 17ZM88.1487 17.242C86.99 17.242 85.956 17.0073 85.0467 16.538C84.152 16.054 83.448 15.3867 82.9347 14.536C82.4213 13.6853 82.1647 12.7247 82.1647 11.654C82.1647 10.5833 82.414 9.63 82.9127 8.794C83.426 7.94333 84.1153 7.276 84.9807 6.792C85.846 6.308 86.8213 6.066 87.9067 6.066C88.9627 6.066 89.894 6.29333 90.7007 6.748C91.5073 7.20267 92.138 7.83333 92.5927 8.64C93.062 9.44667 93.2967 10.3707 93.2967 11.412C93.2967 11.6027 93.282 11.808 93.2527 12.028C93.238 12.2333 93.2013 12.4753 93.1427 12.754L83.9247 12.776V10.466L91.7127 10.444L90.2607 11.412C90.246 10.796 90.1507 10.29 89.9747 9.894C89.7987 9.48333 89.5347 9.17533 89.1827 8.97C88.8453 8.75 88.4273 8.64 87.9287 8.64C87.4007 8.64 86.9387 8.76467 86.5427 9.014C86.1613 9.24867 85.8607 9.586 85.6407 10.026C85.4353 10.466 85.3327 11.0013 85.3327 11.632C85.3327 12.2627 85.4427 12.8053 85.6627 13.26C85.8973 13.7 86.22 14.0447 86.6307 14.294C87.056 14.5287 87.5547 14.646 88.1267 14.646C88.6547 14.646 89.1313 14.558 89.5567 14.382C89.982 14.1913 90.356 13.9127 90.6787 13.546L92.5267 15.394C91.9987 16.01 91.3607 16.472 90.6127 16.78C89.8647 17.088 89.0433 17.242 88.1487 17.242ZM102.411 17.044L98.0109 6.308H101.641L104.435 14.822H103.093L105.953 6.308H109.583L105.007 17.044H102.411ZM99.6609 21.51L102.873 14.58L105.007 17.044L103.115 21.51H99.6609ZM115.603 17.242C114.503 17.242 113.505 17 112.611 16.516C111.731 16.0173 111.034 15.3427 110.521 14.492C110.007 13.6413 109.751 12.688 109.751 11.632C109.751 10.576 110.007 9.63 110.521 8.794C111.034 7.958 111.731 7.298 112.611 6.814C113.491 6.31533 114.488 6.066 115.603 6.066C116.717 6.066 117.715 6.308 118.595 6.792C119.475 7.276 120.171 7.94333 120.685 8.794C121.198 9.63 121.455 10.576 121.455 11.632C121.455 12.688 121.198 13.6413 120.685 14.492C120.171 15.3427 119.475 16.0173 118.595 16.516C117.715 17 116.717 17.242 115.603 17.242ZM115.603 14.184C116.087 14.184 116.512 14.0813 116.879 13.876C117.245 13.656 117.524 13.3553 117.715 12.974C117.92 12.578 118.023 12.1307 118.023 11.632C118.023 11.1333 117.92 10.7007 117.715 10.334C117.509 9.95267 117.223 9.65933 116.857 9.454C116.505 9.234 116.087 9.124 115.603 9.124C115.133 9.124 114.715 9.234 114.349 9.454C113.982 9.65933 113.696 9.95267 113.491 10.334C113.285 10.7153 113.183 11.1553 113.183 11.654C113.183 12.138 113.285 12.578 113.491 12.974C113.696 13.3553 113.982 13.656 114.349 13.876C114.715 14.0813 115.133 14.184 115.603 14.184ZM127.882 17.242C126.9 17.242 126.027 17.044 125.264 16.648C124.516 16.2373 123.93 15.68 123.504 14.976C123.079 14.2573 122.866 13.436 122.866 12.512V6.308H126.232V12.468C126.232 12.8347 126.291 13.15 126.408 13.414C126.54 13.678 126.731 13.8833 126.98 14.03C127.23 14.1767 127.53 14.25 127.882 14.25C128.381 14.25 128.777 14.096 129.07 13.788C129.364 13.4653 129.51 13.0253 129.51 12.468V6.308H132.876V12.49C132.876 13.4287 132.664 14.2573 132.238 14.976C131.813 15.68 131.226 16.2373 130.478 16.648C129.73 17.044 128.865 17.242 127.882 17.242ZM134.99 17V6.308H138.356V17H134.99ZM138.356 11.126L136.948 10.026C137.226 8.77933 137.696 7.81133 138.356 7.122C139.016 6.43267 139.932 6.088 141.106 6.088C141.619 6.088 142.066 6.16867 142.448 6.33C142.844 6.47667 143.188 6.71133 143.482 7.034L141.48 9.564C141.333 9.40267 141.15 9.278 140.93 9.19C140.71 9.102 140.46 9.058 140.182 9.058C139.624 9.058 139.177 9.234 138.84 9.586C138.517 9.92333 138.356 10.4367 138.356 11.126ZM150.319 17V5.384C150.319 4.51867 150.509 3.74133 150.891 3.052C151.287 2.348 151.837 1.798 152.541 1.402C153.245 0.991332 154.081 0.785999 155.049 0.785999C155.782 0.785999 156.42 0.910666 156.963 1.16C157.52 1.39467 158.004 1.72467 158.415 2.15L156.303 4.262C156.156 4.11533 155.987 4.00533 155.797 3.932C155.621 3.844 155.408 3.8 155.159 3.8C154.704 3.8 154.345 3.932 154.081 4.196C153.817 4.46 153.685 4.81933 153.685 5.274V17H150.319ZM147.965 9.168V6.308H156.765V9.168H147.965ZM158.15 17V6.308H161.516V17H158.15ZM161.516 11.126L160.108 10.026C160.387 8.77933 160.856 7.81133 161.516 7.122C162.176 6.43267 163.093 6.088 164.266 6.088C164.779 6.088 165.227 6.16867 165.608 6.33C166.004 6.47667 166.349 6.71133 166.642 7.034L164.64 9.564C164.493 9.40267 164.31 9.278 164.09 9.19C163.87 9.102 163.621 9.058 163.342 9.058C162.785 9.058 162.337 9.234 162 9.586C161.677 9.92333 161.516 10.4367 161.516 11.126ZM172.386 17.242C171.286 17.242 170.288 17 169.394 16.516C168.514 16.0173 167.817 15.3427 167.304 14.492C166.79 13.6413 166.534 12.688 166.534 11.632C166.534 10.576 166.79 9.63 167.304 8.794C167.817 7.958 168.514 7.298 169.394 6.814C170.274 6.31533 171.271 6.066 172.386 6.066C173.5 6.066 174.498 6.308 175.378 6.792C176.258 7.276 176.954 7.94333 177.468 8.794C177.981 9.63 178.238 10.576 178.238 11.632C178.238 12.688 177.981 13.6413 177.468 14.492C176.954 15.3427 176.258 16.0173 175.378 16.516C174.498 17 173.5 17.242 172.386 17.242ZM172.386 14.184C172.87 14.184 173.295 14.0813 173.662 13.876C174.028 13.656 174.307 13.3553 174.498 12.974C174.703 12.578 174.806 12.1307 174.806 11.632C174.806 11.1333 174.703 10.7007 174.498 10.334C174.292 9.95267 174.006 9.65933 173.64 9.454C173.288 9.234 172.87 9.124 172.386 9.124C171.916 9.124 171.498 9.234 171.132 9.454C170.765 9.65933 170.479 9.95267 170.274 10.334C170.068 10.7153 169.966 11.1553 169.966 11.654C169.966 12.138 170.068 12.578 170.274 12.974C170.479 13.3553 170.765 13.656 171.132 13.876C171.498 14.0813 171.916 14.184 172.386 14.184ZM186.976 17V10.906C186.976 10.3487 186.8 9.90133 186.448 9.564C186.11 9.212 185.678 9.036 185.15 9.036C184.783 9.036 184.46 9.11667 184.182 9.278C183.903 9.42467 183.683 9.64467 183.522 9.938C183.36 10.2167 183.28 10.5393 183.28 10.906L181.982 10.268C181.982 9.432 182.165 8.69867 182.532 8.068C182.898 7.43733 183.404 6.95333 184.05 6.616C184.71 6.264 185.45 6.088 186.272 6.088C187.064 6.088 187.76 6.27867 188.362 6.66C188.978 7.02667 189.462 7.518 189.814 8.134C190.166 8.75 190.342 9.42467 190.342 10.158V17H186.976ZM179.914 17V6.308H183.28V17H179.914ZM193.893 17V1.886H197.259V17H193.893ZM191.473 9.168V6.308H199.679V9.168H191.473ZM200.882 12.864V9.916H208.67V12.864H200.882ZM216.776 17.242C215.617 17.242 214.583 17.0073 213.674 16.538C212.779 16.054 212.075 15.3867 211.562 14.536C211.048 13.6853 210.792 12.7247 210.792 11.654C210.792 10.5833 211.041 9.63 211.54 8.794C212.053 7.94333 212.742 7.276 213.608 6.792C214.473 6.308 215.448 6.066 216.534 6.066C217.59 6.066 218.521 6.29333 219.328 6.748C220.134 7.20267 220.765 7.83333 221.22 8.64C221.689 9.44667 221.924 10.3707 221.924 11.412C221.924 11.6027 221.909 11.808 221.88 12.028C221.865 12.2333 221.828 12.4753 221.77 12.754L212.552 12.776V10.466L220.34 10.444L218.888 11.412C218.873 10.796 218.778 10.29 218.602 9.894C218.426 9.48333 218.162 9.17533 217.81 8.97C217.472 8.75 217.054 8.64 216.556 8.64C216.028 8.64 215.566 8.76467 215.17 9.014C214.788 9.24867 214.488 9.586 214.268 10.026C214.062 10.466 213.96 11.0013 213.96 11.632C213.96 12.2627 214.07 12.8053 214.29 13.26C214.524 13.7 214.847 14.0447 215.258 14.294C215.683 14.5287 216.182 14.646 216.754 14.646C217.282 14.646 217.758 14.558 218.184 14.382C218.609 14.1913 218.983 13.9127 219.306 13.546L221.154 15.394C220.626 16.01 219.988 16.472 219.24 16.78C218.492 17.088 217.67 17.242 216.776 17.242ZM230.61 17V10.906C230.61 10.3487 230.434 9.90133 230.082 9.564C229.745 9.212 229.312 9.036 228.784 9.036C228.418 9.036 228.095 9.11667 227.816 9.278C227.538 9.42467 227.318 9.64467 227.156 9.938C226.995 10.2167 226.914 10.5393 226.914 10.906L225.616 10.268C225.616 9.432 225.8 8.69867 226.166 8.068C226.533 7.43733 227.039 6.95333 227.684 6.616C228.344 6.264 229.085 6.088 229.906 6.088C230.698 6.088 231.395 6.27867 231.996 6.66C232.612 7.02667 233.096 7.518 233.448 8.134C233.8 8.75 233.976 9.42467 233.976 10.158V17H230.61ZM223.548 17V6.308H226.914V17H223.548ZM240.692 17.22C239.68 17.22 238.778 16.978 237.986 16.494C237.209 16.01 236.593 15.35 236.138 14.514C235.698 13.678 235.478 12.7247 235.478 11.654C235.478 10.5833 235.698 9.63 236.138 8.794C236.593 7.958 237.209 7.298 237.986 6.814C238.778 6.33 239.68 6.088 240.692 6.088C241.426 6.088 242.086 6.22733 242.672 6.506C243.274 6.78467 243.765 7.17333 244.146 7.672C244.542 8.156 244.762 8.71333 244.806 9.344V13.854C244.762 14.4847 244.55 15.0567 244.168 15.57C243.787 16.0687 243.296 16.472 242.694 16.78C242.093 17.0733 241.426 17.22 240.692 17.22ZM241.286 14.184C241.77 14.184 242.188 14.0813 242.54 13.876C242.892 13.656 243.171 13.3553 243.376 12.974C243.582 12.5927 243.684 12.1527 243.684 11.654C243.684 11.1553 243.582 10.7227 243.376 10.356C243.186 9.97467 242.907 9.674 242.54 9.454C242.188 9.234 241.778 9.124 241.308 9.124C240.839 9.124 240.421 9.234 240.054 9.454C239.702 9.674 239.416 9.97467 239.196 10.356C238.991 10.7373 238.888 11.17 238.888 11.654C238.888 12.138 238.991 12.5707 239.196 12.952C239.402 13.3333 239.688 13.634 240.054 13.854C240.421 14.074 240.832 14.184 241.286 14.184ZM246.852 17H243.552V14.118L244.058 11.522L243.486 8.926V1.028H246.852V17ZM9.54782 45.264C8.91715 45.264 8.29382 45.1833 7.67782 45.022C7.07649 44.8607 6.51182 44.6333 5.98382 44.34C5.47049 44.032 5.03049 43.68 4.66382 43.284L6.57782 41.348C6.92982 41.7293 7.34782 42.03 7.83182 42.25C8.31582 42.4553 8.84382 42.558 9.41582 42.558C9.81182 42.558 10.1125 42.4993 10.3178 42.382C10.5378 42.2647 10.6478 42.1033 10.6478 41.898C10.6478 41.634 10.5158 41.436 10.2518 41.304C10.0025 41.1573 9.67982 41.0327 9.28382 40.93C8.88782 40.8127 8.46982 40.688 8.02982 40.556C7.58982 40.424 7.17182 40.2407 6.77582 40.006C6.37982 39.7713 6.05715 39.4487 5.80782 39.038C5.55849 38.6127 5.43382 38.0773 5.43382 37.432C5.43382 36.7427 5.60982 36.1487 5.96182 35.65C6.31382 35.1367 6.81249 34.7333 7.45782 34.44C8.10315 34.1467 8.85849 34 9.72382 34C10.6332 34 11.4692 34.1613 12.2318 34.484C13.0092 34.792 13.6398 35.254 14.1238 35.87L12.2098 37.806C11.8725 37.41 11.4912 37.1313 11.0658 36.97C10.6552 36.8087 10.2518 36.728 9.85582 36.728C9.47449 36.728 9.18849 36.7867 8.99782 36.904C8.80715 37.0067 8.71182 37.1607 8.71182 37.366C8.71182 37.586 8.83649 37.762 9.08582 37.894C9.33515 38.026 9.65782 38.1433 10.0538 38.246C10.4498 38.3487 10.8678 38.4733 11.3078 38.62C11.7478 38.7667 12.1658 38.9647 12.5618 39.214C12.9578 39.4633 13.2805 39.8007 13.5298 40.226C13.7792 40.6367 13.9038 41.1793 13.9038 41.854C13.9038 42.8953 13.5078 43.724 12.7158 44.34C11.9385 44.956 10.8825 45.264 9.54782 45.264ZM22.572 45L18.832 39.456L22.55 34.308H26.312L21.824 40.094L21.934 38.708L26.532 45H22.572ZM15.73 45V29.028H19.096V45H15.73ZM27.353 45V34.308H30.719V45H27.353ZM29.047 32.834C28.519 32.834 28.079 32.658 27.727 32.306C27.3897 31.9393 27.221 31.4993 27.221 30.986C27.221 30.458 27.3897 30.018 27.727 29.666C28.079 29.314 28.519 29.138 29.047 29.138C29.575 29.138 30.0077 29.314 30.345 29.666C30.6824 30.018 30.851 30.458 30.851 30.986C30.851 31.4993 30.6824 31.9393 30.345 32.306C30.0077 32.658 29.575 32.834 29.047 32.834ZM33.0894 45V29.028H36.4554V45H33.0894ZM38.8257 45V29.028H42.1917V45H38.8257ZM48.456 45.264C47.8254 45.264 47.202 45.1833 46.586 45.022C45.9847 44.8607 45.42 44.6333 44.892 44.34C44.3787 44.032 43.9387 43.68 43.572 43.284L45.486 41.348C45.838 41.7293 46.256 42.03 46.74 42.25C47.224 42.4553 47.752 42.558 48.324 42.558C48.72 42.558 49.0207 42.4993 49.226 42.382C49.446 42.2647 49.556 42.1033 49.556 41.898C49.556 41.634 49.424 41.436 49.16 41.304C48.9107 41.1573 48.588 41.0327 48.192 40.93C47.796 40.8127 47.378 40.688 46.938 40.556C46.498 40.424 46.08 40.2407 45.684 40.006C45.288 39.7713 44.9654 39.4487 44.716 39.038C44.4667 38.6127 44.342 38.0773 44.342 37.432C44.342 36.7427 44.518 36.1487 44.87 35.65C45.222 35.1367 45.7207 34.7333 46.366 34.44C47.0114 34.1467 47.7667 34 48.632 34C49.5414 34 50.3774 34.1613 51.14 34.484C51.9174 34.792 52.548 35.254 53.032 35.87L51.118 37.806C50.7807 37.41 50.3994 37.1313 49.974 36.97C49.5634 36.8087 49.16 36.728 48.764 36.728C48.3827 36.728 48.0967 36.7867 47.906 36.904C47.7154 37.0067 47.62 37.1607 47.62 37.366C47.62 37.586 47.7447 37.762 47.994 37.894C48.2434 38.026 48.566 38.1433 48.962 38.246C49.358 38.3487 49.776 38.4733 50.216 38.62C50.656 38.7667 51.074 38.9647 51.47 39.214C51.866 39.4633 52.1887 39.8007 52.438 40.226C52.6874 40.6367 52.812 41.1793 52.812 41.854C52.812 42.8953 52.416 43.724 51.624 44.34C50.8467 44.956 49.7907 45.264 48.456 45.264ZM64.9876 45.22C64.269 45.22 63.609 45.0733 63.0076 44.78C62.4063 44.472 61.915 44.0687 61.5336 43.57C61.1523 43.0567 60.9323 42.4847 60.8736 41.854V37.344C60.9323 36.7133 61.1523 36.156 61.5336 35.672C61.915 35.1733 62.4063 34.7847 63.0076 34.506C63.609 34.2273 64.269 34.088 64.9876 34.088C65.9996 34.088 66.8943 34.33 67.6716 34.814C68.4636 35.298 69.0796 35.958 69.5196 36.794C69.9743 37.63 70.2016 38.5833 70.2016 39.654C70.2016 40.7247 69.9743 41.678 69.5196 42.514C69.0796 43.35 68.4636 44.01 67.6716 44.494C66.8943 44.978 65.9996 45.22 64.9876 45.22ZM64.3936 42.184C64.863 42.184 65.2736 42.074 65.6256 41.854C65.9923 41.634 66.2783 41.3333 66.4836 40.952C66.689 40.5707 66.7916 40.138 66.7916 39.654C66.7916 39.1553 66.689 38.7153 66.4836 38.334C66.2783 37.9527 65.9923 37.6593 65.6256 37.454C65.2736 37.234 64.863 37.124 64.3936 37.124C63.9243 37.124 63.5063 37.234 63.1396 37.454C62.773 37.6593 62.487 37.9527 62.2816 38.334C62.091 38.7153 61.9956 39.1553 61.9956 39.654C61.9956 40.1527 62.0983 40.5927 62.3036 40.974C62.509 41.3553 62.7876 41.656 63.1396 41.876C63.5063 42.0813 63.9243 42.184 64.3936 42.184ZM58.8276 45V29.028H62.1936V36.926L61.6436 39.522L62.1496 42.118V45H58.8276ZM74.9109 45.044L70.5109 34.308H74.1409L76.9349 42.822H75.5929L78.4529 34.308H82.0829L77.5069 45.044H74.9109ZM72.1609 49.51L75.3729 42.58L77.5069 45.044L75.6149 49.51H72.1609ZM93.7123 45.22C92.9936 45.22 92.3336 45.0733 91.7323 44.78C91.1309 44.472 90.6396 44.0687 90.2583 43.57C89.8769 43.0567 89.6569 42.4847 89.5983 41.854V37.344C89.6569 36.7133 89.8769 36.156 90.2583 35.672C90.6396 35.1733 91.1309 34.7847 91.7323 34.506C92.3336 34.2273 92.9936 34.088 93.7123 34.088C94.7243 34.088 95.6189 34.33 96.3963 34.814C97.1883 35.298 97.8043 35.958 98.2443 36.794C98.6989 37.63 98.9263 38.5833 98.9263 39.654C98.9263 40.7247 98.6989 41.678 98.2443 42.514C97.8043 43.35 97.1883 44.01 96.3963 44.494C95.6189 44.978 94.7243 45.22 93.7123 45.22ZM93.1183 42.184C93.5876 42.184 93.9983 42.074 94.3503 41.854C94.7169 41.634 95.0029 41.3333 95.2083 40.952C95.4136 40.5707 95.5163 40.138 95.5163 39.654C95.5163 39.1553 95.4136 38.7153 95.2083 38.334C95.0029 37.9527 94.7169 37.6593 94.3503 37.454C93.9983 37.234 93.5876 37.124 93.1183 37.124C92.6489 37.124 92.2309 37.234 91.8643 37.454C91.4976 37.6593 91.2116 37.9527 91.0063 38.334C90.8156 38.7153 90.7203 39.1553 90.7203 39.654C90.7203 40.1527 90.8229 40.5927 91.0283 40.974C91.2336 41.3553 91.5123 41.656 91.8643 41.876C92.2309 42.0813 92.6489 42.184 93.1183 42.184ZM87.5523 45V29.028H90.9183V36.926L90.3683 39.522L90.8743 42.118V45H87.5523ZM105.388 45.242C104.406 45.242 103.533 45.044 102.77 44.648C102.022 44.2373 101.436 43.68 101.01 42.976C100.585 42.2573 100.372 41.436 100.372 40.512V34.308H103.738V40.468C103.738 40.8347 103.797 41.15 103.914 41.414C104.046 41.678 104.237 41.8833 104.486 42.03C104.736 42.1767 105.036 42.25 105.388 42.25C105.887 42.25 106.283 42.096 106.576 41.788C106.87 41.4653 107.016 41.0253 107.016 40.468V34.308H110.382V40.49C110.382 41.4287 110.17 42.2573 109.744 42.976C109.319 43.68 108.732 44.2373 107.984 44.648C107.236 45.044 106.371 45.242 105.388 45.242ZM112.496 45V34.308H115.862V45H112.496ZM114.19 32.834C113.662 32.834 113.222 32.658 112.87 32.306C112.532 31.9393 112.364 31.4993 112.364 30.986C112.364 30.458 112.532 30.018 112.87 29.666C113.222 29.314 113.662 29.138 114.19 29.138C114.718 29.138 115.15 29.314 115.488 29.666C115.825 30.018 115.994 30.458 115.994 30.986C115.994 31.4993 115.825 31.9393 115.488 32.306C115.15 32.658 114.718 32.834 114.19 32.834ZM118.232 45V29.028H121.598V45H118.232ZM128.522 45.22C127.51 45.22 126.608 44.978 125.816 44.494C125.039 44.01 124.423 43.35 123.968 42.514C123.528 41.678 123.308 40.7247 123.308 39.654C123.308 38.5833 123.528 37.63 123.968 36.794C124.423 35.958 125.039 35.298 125.816 34.814C126.608 34.33 127.51 34.088 128.522 34.088C129.256 34.088 129.916 34.2273 130.502 34.506C131.104 34.7847 131.595 35.1733 131.976 35.672C132.372 36.156 132.592 36.7133 132.636 37.344V41.854C132.592 42.4847 132.38 43.0567 131.998 43.57C131.617 44.0687 131.126 44.472 130.524 44.78C129.923 45.0733 129.256 45.22 128.522 45.22ZM129.116 42.184C129.6 42.184 130.018 42.0813 130.37 41.876C130.722 41.656 131.001 41.3553 131.206 40.974C131.412 40.5927 131.514 40.1527 131.514 39.654C131.514 39.1553 131.412 38.7227 131.206 38.356C131.016 37.9747 130.737 37.674 130.37 37.454C130.018 37.234 129.608 37.124 129.138 37.124C128.669 37.124 128.251 37.234 127.884 37.454C127.532 37.674 127.246 37.9747 127.026 38.356C126.821 38.7373 126.718 39.17 126.718 39.654C126.718 40.138 126.821 40.5707 127.026 40.952C127.232 41.3333 127.518 41.634 127.884 41.854C128.251 42.074 128.662 42.184 129.116 42.184ZM134.682 45H131.382V42.118L131.888 39.522L131.316 36.926V29.028H134.682V45ZM137.052 45V34.308H140.418V45H137.052ZM138.746 32.834C138.218 32.834 137.778 32.658 137.426 32.306C137.089 31.9393 136.92 31.4993 136.92 30.986C136.92 30.458 137.089 30.018 137.426 29.666C137.778 29.314 138.218 29.138 138.746 29.138C139.274 29.138 139.707 29.314 140.044 29.666C140.382 30.018 140.55 30.458 140.55 30.986C140.55 31.4993 140.382 31.9393 140.044 32.306C139.707 32.658 139.274 32.834 138.746 32.834ZM149.851 45V38.906C149.851 38.3487 149.675 37.9013 149.323 37.564C148.985 37.212 148.553 37.036 148.025 37.036C147.658 37.036 147.335 37.1167 147.057 37.278C146.778 37.4247 146.558 37.6447 146.397 37.938C146.235 38.2167 146.155 38.5393 146.155 38.906L144.857 38.268C144.857 37.432 145.04 36.6987 145.407 36.068C145.773 35.4373 146.279 34.9533 146.925 34.616C147.585 34.264 148.325 34.088 149.147 34.088C149.939 34.088 150.635 34.2787 151.237 34.66C151.853 35.0267 152.337 35.518 152.689 36.134C153.041 36.75 153.217 37.4247 153.217 38.158V45H149.851ZM142.789 45V34.308H146.155V45H142.789ZM159.91 49.796C158.737 49.796 157.703 49.5907 156.808 49.18C155.928 48.784 155.232 48.2193 154.718 47.486L156.786 45.418C157.168 45.8727 157.593 46.2173 158.062 46.452C158.546 46.6867 159.126 46.804 159.8 46.804C160.636 46.804 161.289 46.5987 161.758 46.188C162.242 45.7773 162.484 45.198 162.484 44.45V41.722L163.056 39.39L162.55 37.058V34.308H165.85V44.362C165.85 45.462 165.594 46.4153 165.08 47.222C164.567 48.0287 163.863 48.6593 162.968 49.114C162.074 49.5687 161.054 49.796 159.91 49.796ZM159.756 44.67C158.774 44.67 157.901 44.4353 157.138 43.966C156.376 43.4967 155.774 42.8587 155.334 42.052C154.894 41.2453 154.674 40.3507 154.674 39.368C154.674 38.3707 154.894 37.476 155.334 36.684C155.774 35.8773 156.376 35.2467 157.138 34.792C157.901 34.3227 158.774 34.088 159.756 34.088C160.49 34.088 161.142 34.2273 161.714 34.506C162.301 34.77 162.77 35.1513 163.122 35.65C163.489 36.134 163.694 36.6987 163.738 37.344V41.414C163.694 42.0447 163.489 42.6093 163.122 43.108C162.77 43.592 162.301 43.9733 161.714 44.252C161.128 44.5307 160.475 44.67 159.756 44.67ZM160.394 41.678C160.864 41.678 161.267 41.5753 161.604 41.37C161.956 41.1647 162.22 40.8933 162.396 40.556C162.587 40.204 162.682 39.808 162.682 39.368C162.682 38.928 162.587 38.532 162.396 38.18C162.22 37.828 161.956 37.5493 161.604 37.344C161.267 37.1387 160.864 37.036 160.394 37.036C159.94 37.036 159.536 37.1387 159.184 37.344C158.832 37.5493 158.561 37.828 158.37 38.18C158.18 38.532 158.084 38.928 158.084 39.368C158.084 39.7787 158.18 40.1673 158.37 40.534C158.561 40.886 158.825 41.1647 159.162 41.37C159.514 41.5753 159.925 41.678 160.394 41.678ZM178.576 45.22C177.857 45.22 177.197 45.0807 176.596 44.802C175.994 44.5233 175.503 44.142 175.122 43.658C174.74 43.1593 174.52 42.5947 174.462 41.964V37.454C174.52 36.8233 174.74 36.2513 175.122 35.738C175.503 35.2247 175.994 34.8213 176.596 34.528C177.197 34.2347 177.857 34.088 178.576 34.088C179.588 34.088 180.482 34.33 181.26 34.814C182.052 35.298 182.668 35.958 183.108 36.794C183.562 37.63 183.79 38.5833 183.79 39.654C183.79 40.7247 183.562 41.678 183.108 42.514C182.668 43.35 182.052 44.01 181.26 44.494C180.482 44.978 179.588 45.22 178.576 45.22ZM177.96 42.184C178.444 42.184 178.862 42.074 179.214 41.854C179.58 41.634 179.866 41.3333 180.072 40.952C180.277 40.5707 180.38 40.138 180.38 39.654C180.38 39.1553 180.277 38.7153 180.072 38.334C179.866 37.9527 179.58 37.6593 179.214 37.454C178.862 37.234 178.451 37.124 177.982 37.124C177.512 37.124 177.094 37.234 176.728 37.454C176.376 37.6593 176.097 37.9527 175.892 38.334C175.686 38.7153 175.584 39.1553 175.584 39.654C175.584 40.138 175.679 40.5707 175.87 40.952C176.075 41.3333 176.361 41.634 176.728 41.854C177.094 42.074 177.505 42.184 177.96 42.184ZM172.416 49.51V34.308H175.782V37.058L175.232 39.654L175.738 42.25V49.51H172.416ZM185.5 45V34.308H188.866V45H185.5ZM188.866 39.126L187.458 38.026C187.736 36.7793 188.206 35.8113 188.866 35.122C189.526 34.4327 190.442 34.088 191.616 34.088C192.129 34.088 192.576 34.1687 192.958 34.33C193.354 34.4767 193.698 34.7113 193.992 35.034L191.99 37.564C191.843 37.4027 191.66 37.278 191.44 37.19C191.22 37.102 190.97 37.058 190.692 37.058C190.134 37.058 189.687 37.234 189.35 37.586C189.027 37.9233 188.866 38.4367 188.866 39.126ZM199.735 45.242C198.635 45.242 197.638 45 196.743 44.516C195.863 44.0173 195.167 43.3427 194.653 42.492C194.14 41.6413 193.883 40.688 193.883 39.632C193.883 38.576 194.14 37.63 194.653 36.794C195.167 35.958 195.863 35.298 196.743 34.814C197.623 34.3153 198.621 34.066 199.735 34.066C200.85 34.066 201.847 34.308 202.727 34.792C203.607 35.276 204.304 35.9433 204.817 36.794C205.331 37.63 205.587 38.576 205.587 39.632C205.587 40.688 205.331 41.6413 204.817 42.492C204.304 43.3427 203.607 44.0173 202.727 44.516C201.847 45 200.85 45.242 199.735 45.242ZM199.735 42.184C200.219 42.184 200.645 42.0813 201.011 41.876C201.378 41.656 201.657 41.3553 201.847 40.974C202.053 40.578 202.155 40.1307 202.155 39.632C202.155 39.1333 202.053 38.7007 201.847 38.334C201.642 37.9527 201.356 37.6593 200.989 37.454C200.637 37.234 200.219 37.124 199.735 37.124C199.266 37.124 198.848 37.234 198.481 37.454C198.115 37.6593 197.829 37.9527 197.623 38.334C197.418 38.7153 197.315 39.1553 197.315 39.654C197.315 40.138 197.418 40.578 197.623 40.974C197.829 41.3553 198.115 41.656 198.481 41.876C198.848 42.0813 199.266 42.184 199.735 42.184ZM206.647 49.796C205.87 49.796 205.21 49.664 204.667 49.4C204.125 49.1507 203.648 48.7913 203.237 48.322L205.327 46.232C205.489 46.4227 205.657 46.5547 205.833 46.628C205.995 46.716 206.185 46.76 206.405 46.76C206.728 46.76 206.992 46.6647 207.197 46.474C207.417 46.2833 207.527 45.99 207.527 45.594V34.308H210.893V45.55C210.893 46.4153 210.71 47.1633 210.343 47.794C209.977 48.4247 209.471 48.916 208.825 49.268C208.195 49.62 207.469 49.796 206.647 49.796ZM209.243 32.834C208.715 32.834 208.275 32.658 207.923 32.306C207.586 31.9393 207.417 31.4993 207.417 30.986C207.417 30.458 207.586 30.018 207.923 29.666C208.275 29.314 208.715 29.138 209.243 29.138C209.771 29.138 210.204 29.314 210.541 29.666C210.879 30.018 211.047 30.458 211.047 30.986C211.047 31.4993 210.879 31.9393 210.541 32.306C210.204 32.658 209.771 32.834 209.243 32.834ZM218.559 45.242C217.4 45.242 216.366 45.0073 215.457 44.538C214.562 44.054 213.858 43.3867 213.345 42.536C212.831 41.6853 212.575 40.7247 212.575 39.654C212.575 38.5833 212.824 37.63 213.323 36.794C213.836 35.9433 214.525 35.276 215.391 34.792C216.256 34.308 217.231 34.066 218.317 34.066C219.373 34.066 220.304 34.2933 221.111 34.748C221.917 35.2027 222.548 35.8333 223.003 36.64C223.472 37.4467 223.707 38.3707 223.707 39.412C223.707 39.6027 223.692 39.808 223.663 40.028C223.648 40.2333 223.611 40.4753 223.553 40.754L214.335 40.776V38.466L222.123 38.444L220.671 39.412C220.656 38.796 220.561 38.29 220.385 37.894C220.209 37.4833 219.945 37.1753 219.593 36.97C219.255 36.75 218.837 36.64 218.339 36.64C217.811 36.64 217.349 36.7647 216.953 37.014C216.571 37.2487 216.271 37.586 216.051 38.026C215.845 38.466 215.743 39.0013 215.743 39.632C215.743 40.2627 215.853 40.8053 216.073 41.26C216.307 41.7 216.63 42.0447 217.041 42.294C217.466 42.5287 217.965 42.646 218.537 42.646C219.065 42.646 219.541 42.558 219.967 42.382C220.392 42.1913 220.766 41.9127 221.089 41.546L222.937 43.394C222.409 44.01 221.771 44.472 221.023 44.78C220.275 45.088 219.453 45.242 218.559 45.242ZM230.502 45.242C229.402 45.242 228.404 45 227.51 44.516C226.615 44.032 225.911 43.3647 225.398 42.514C224.884 41.6633 224.628 40.71 224.628 39.654C224.628 38.5833 224.884 37.63 225.398 36.794C225.926 35.9433 226.637 35.276 227.532 34.792C228.426 34.308 229.431 34.066 230.546 34.066C231.382 34.066 232.144 34.2127 232.834 34.506C233.538 34.7847 234.161 35.21 234.704 35.782L232.548 37.938C232.298 37.6593 232.005 37.454 231.668 37.322C231.345 37.19 230.971 37.124 230.546 37.124C230.062 37.124 229.629 37.234 229.248 37.454C228.881 37.6593 228.588 37.9527 228.368 38.334C228.162 38.7007 228.06 39.1333 228.06 39.632C228.06 40.1307 228.162 40.5707 228.368 40.952C228.588 41.3333 228.888 41.634 229.27 41.854C229.651 42.074 230.076 42.184 230.546 42.184C230.986 42.184 231.374 42.1107 231.712 41.964C232.064 41.8027 232.364 41.5827 232.614 41.304L234.748 43.46C234.19 44.0467 233.56 44.494 232.856 44.802C232.152 45.0953 231.367 45.242 230.502 45.242ZM237.592 45V29.886H240.958V45H237.592ZM235.172 37.168V34.308H243.378V37.168H235.172ZM248.54 45.264C247.909 45.264 247.286 45.1833 246.67 45.022C246.069 44.8607 245.504 44.6333 244.976 44.34C244.463 44.032 244.023 43.68 243.656 43.284L245.57 41.348C245.922 41.7293 246.34 42.03 246.824 42.25C247.308 42.4553 247.836 42.558 248.408 42.558C248.804 42.558 249.105 42.4993 249.31 42.382C249.53 42.2647 249.64 42.1033 249.64 41.898C249.64 41.634 249.508 41.436 249.244 41.304C248.995 41.1573 248.672 41.0327 248.276 40.93C247.88 40.8127 247.462 40.688 247.022 40.556C246.582 40.424 246.164 40.2407 245.768 40.006C245.372 39.7713 245.049 39.4487 244.8 39.038C244.551 38.6127 244.426 38.0773 244.426 37.432C244.426 36.7427 244.602 36.1487 244.954 35.65C245.306 35.1367 245.805 34.7333 246.45 34.44C247.095 34.1467 247.851 34 248.716 34C249.625 34 250.461 34.1613 251.224 34.484C252.001 34.792 252.632 35.254 253.116 35.87L251.202 37.806C250.865 37.41 250.483 37.1313 250.058 36.97C249.647 36.8087 249.244 36.728 248.848 36.728C248.467 36.728 248.181 36.7867 247.99 36.904C247.799 37.0067 247.704 37.1607 247.704 37.366C247.704 37.586 247.829 37.762 248.078 37.894C248.327 38.026 248.65 38.1433 249.046 38.246C249.442 38.3487 249.86 38.4733 250.3 38.62C250.74 38.7667 251.158 38.9647 251.554 39.214C251.95 39.4633 252.273 39.8007 252.522 40.226C252.771 40.6367 252.896 41.1793 252.896 41.854C252.896 42.8953 252.5 43.724 251.708 44.34C250.931 44.956 249.875 45.264 248.54 45.264Z" fill="#1F314F"/>
</g>
<defs>
<filter id="filter0_d_0_1479" x="0.663818" y="0.786011" width="256.452" height="57.01" filterUnits="userSpaceOnUse" color-interpolation-filters="sRGB">
<feFlood flood-opacity="0" result="BackgroundImageFix"/>
<feColorMatrix in="SourceAlpha" type="matrix" values="0 0 0 0 0 0 0 0 0 0 0 0 0 0 0 0 0 0 127 0" result="hardAlpha"/>
<feOffset dy="4"/>
<feGaussianBlur stdDeviation="2"/>
<feComposite in2="hardAlpha" operator="out"/>
<feColorMatrix type="matrix" values="0 0 0 0 0 0 0 0 0 0 0 0 0 0 0 0 0 0 0.25 0"/>
<feBlend mode="normal" in2="BackgroundImageFix" result="effect1_dropShadow_0_1479"/>
<feBlend mode="normal" in="SourceGraphic" in2="effect1_dropShadow_0_1479" result="shape"/>
</filter>
</defs>
</svg>
