<svg width="247" height="50" viewBox="0 0 247 50" fill="none" xmlns="http://www.w3.org/2000/svg">
<path d="M9.7749 11.15C8.9549 11.15 8.2549 11 7.6749 10.7C7.0949 10.4 6.5799 9.965 6.1299 9.395L7.0899 8.435C7.4199 8.895 7.7999 9.245 8.2299 9.485C8.6599 9.715 9.1899 9.83 9.8199 9.83C10.4399 9.83 10.9349 9.695 11.3049 9.425C11.6849 9.155 11.8749 8.785 11.8749 8.315C11.8749 7.925 11.7849 7.61 11.6049 7.37C11.4249 7.13 11.1799 6.935 10.8699 6.785C10.5699 6.625 10.2399 6.485 9.8799 6.365C9.5199 6.235 9.1599 6.1 8.7999 5.96C8.4399 5.81 8.1099 5.63 7.8099 5.42C7.5099 5.2 7.2649 4.915 7.0749 4.565C6.8949 4.215 6.8049 3.775 6.8049 3.245C6.8049 2.655 6.9449 2.155 7.2249 1.745C7.5149 1.325 7.9049 1.005 8.3949 0.784999C8.8949 0.554999 9.4549 0.439999 10.0749 0.439999C10.7549 0.439999 11.3649 0.574999 11.9049 0.844999C12.4449 1.105 12.8849 1.45 13.2249 1.88L12.2649 2.84C11.9549 2.48 11.6199 2.21 11.2599 2.03C10.9099 1.85 10.5049 1.76 10.0449 1.76C9.4849 1.76 9.0399 1.885 8.7099 2.135C8.3799 2.375 8.2149 2.715 8.2149 3.155C8.2149 3.505 8.3049 3.79 8.4849 4.01C8.6749 4.22 8.9199 4.4 9.2199 4.55C9.5199 4.7 9.8499 4.84 10.2099 4.97C10.5799 5.09 10.9449 5.225 11.3049 5.375C11.6649 5.525 11.9949 5.715 12.2949 5.945C12.5949 6.175 12.8349 6.475 13.0149 6.845C13.2049 7.205 13.2999 7.66 13.2999 8.21C13.2999 9.13 12.9799 9.85 12.3399 10.37C11.7099 10.89 10.8549 11.15 9.7749 11.15ZM18.3002 11.15C17.6002 11.15 16.9652 10.985 16.3952 10.655C15.8352 10.325 15.3902 9.88 15.0602 9.32C14.7402 8.75 14.5802 8.12 14.5802 7.43C14.5802 6.73 14.7402 6.1 15.0602 5.54C15.3902 4.98 15.8352 4.54 16.3952 4.22C16.9652 3.89 17.6002 3.725 18.3002 3.725C18.8502 3.725 19.3602 3.83 19.8302 4.04C20.3002 4.24 20.7052 4.535 21.0452 4.925L20.1452 5.825C19.9252 5.565 19.6552 5.37 19.3352 5.24C19.0252 5.1 18.6802 5.03 18.3002 5.03C17.8502 5.03 17.4502 5.135 17.1002 5.345C16.7502 5.545 16.4752 5.825 16.2752 6.185C16.0752 6.545 15.9752 6.96 15.9752 7.43C15.9752 7.9 16.0752 8.315 16.2752 8.675C16.4752 9.035 16.7502 9.32 17.1002 9.53C17.4502 9.74 17.8502 9.845 18.3002 9.845C18.6802 9.845 19.0252 9.78 19.3352 9.65C19.6552 9.51 19.9302 9.31 20.1602 9.05L21.0452 9.95C20.7152 10.33 20.3102 10.625 19.8302 10.835C19.3602 11.045 18.8502 11.15 18.3002 11.15ZM25.4551 11.15C24.8051 11.15 24.2151 10.99 23.6851 10.67C23.1551 10.34 22.7351 9.895 22.4251 9.335C22.1251 8.775 21.9751 8.145 21.9751 7.445C21.9751 6.745 22.1251 6.115 22.4251 5.555C22.7351 4.995 23.1501 4.55 23.6701 4.22C24.2001 3.89 24.7951 3.725 25.4551 3.725C25.9951 3.725 26.4751 3.84 26.8951 4.07C27.3251 4.29 27.6701 4.6 27.9301 5C28.1901 5.39 28.3351 5.845 28.3651 6.365V8.51C28.3351 9.02 28.1901 9.475 27.9301 9.875C27.6801 10.275 27.3401 10.59 26.9101 10.82C26.4901 11.04 26.0051 11.15 25.4551 11.15ZM25.6801 9.875C26.3501 9.875 26.8901 9.65 27.3001 9.2C27.7101 8.74 27.9151 8.155 27.9151 7.445C27.9151 6.955 27.8201 6.53 27.6301 6.17C27.4501 5.8 27.1901 5.515 26.8501 5.315C26.5101 5.105 26.1151 5 25.6651 5C25.2151 5 24.8151 5.105 24.4651 5.315C24.1251 5.525 23.8551 5.815 23.6551 6.185C23.4651 6.545 23.3701 6.96 23.3701 7.43C23.3701 7.91 23.4651 8.335 23.6551 8.705C23.8551 9.065 24.1301 9.35 24.4801 9.56C24.8301 9.77 25.2301 9.875 25.6801 9.875ZM27.8251 11V9.08L28.0801 7.34L27.8251 5.615V3.875H29.1901V11H27.8251ZM36.383 11V6.845C36.383 6.305 36.213 5.86 35.873 5.51C35.533 5.16 35.093 4.985 34.553 4.985C34.193 4.985 33.873 5.065 33.593 5.225C33.313 5.385 33.093 5.605 32.933 5.885C32.773 6.165 32.693 6.485 32.693 6.845L32.138 6.53C32.138 5.99 32.258 5.51 32.498 5.09C32.738 4.67 33.073 4.34 33.503 4.1C33.933 3.85 34.418 3.725 34.958 3.725C35.498 3.725 35.973 3.86 36.383 4.13C36.803 4.4 37.133 4.755 37.373 5.195C37.613 5.625 37.733 6.085 37.733 6.575V11H36.383ZM31.343 11V3.875H32.693V11H31.343ZM44.1509 11V0.89H45.5009V11H44.1509ZM42.3959 5.105V3.875H47.2559V5.105H42.3959ZM53.8059 11V6.845C53.8059 6.305 53.6359 5.86 53.2959 5.51C52.9559 5.16 52.5159 4.985 51.9759 4.985C51.6159 4.985 51.2959 5.065 51.0159 5.225C50.7359 5.385 50.5159 5.605 50.3559 5.885C50.1959 6.165 50.1159 6.485 50.1159 6.845L49.5609 6.53C49.5609 5.99 49.6809 5.51 49.9209 5.09C50.1609 4.67 50.4959 4.34 50.9259 4.1C51.3559 3.85 51.8409 3.725 52.3809 3.725C52.9209 3.725 53.3959 3.845 53.8059 4.085C54.2259 4.325 54.5559 4.66 54.7959 5.09C55.0359 5.52 55.1559 6.015 55.1559 6.575V11H53.8059ZM48.7659 11V0.289999H50.1159V11H48.7659ZM60.4712 11.15C59.7612 11.15 59.1212 10.99 58.5512 10.67C57.9812 10.34 57.5312 9.895 57.2012 9.335C56.8712 8.775 56.7062 8.14 56.7062 7.43C56.7062 6.73 56.8662 6.1 57.1862 5.54C57.5162 4.98 57.9562 4.54 58.5062 4.22C59.0662 3.89 59.6912 3.725 60.3812 3.725C61.0412 3.725 61.6212 3.875 62.1212 4.175C62.6312 4.475 63.0262 4.89 63.3062 5.42C63.5962 5.95 63.7412 6.55 63.7412 7.22C63.7412 7.32 63.7362 7.43 63.7262 7.55C63.7162 7.66 63.6962 7.79 63.6662 7.94H57.6512V6.815H62.9462L62.4512 7.25C62.4512 6.77 62.3662 6.365 62.1962 6.035C62.0262 5.695 61.7862 5.435 61.4762 5.255C61.1662 5.065 60.7912 4.97 60.3512 4.97C59.8912 4.97 59.4862 5.07 59.1362 5.27C58.7862 5.47 58.5162 5.75 58.3262 6.11C58.1362 6.47 58.0412 6.895 58.0412 7.385C58.0412 7.885 58.1412 8.325 58.3412 8.705C58.5412 9.075 58.8262 9.365 59.1962 9.575C59.5662 9.775 59.9912 9.875 60.4712 9.875C60.8712 9.875 61.2362 9.805 61.5662 9.665C61.9062 9.525 62.1962 9.315 62.4362 9.035L63.3062 9.92C62.9662 10.32 62.5462 10.625 62.0462 10.835C61.5562 11.045 61.0312 11.15 60.4712 11.15ZM73.7033 11.15C72.9633 11.15 72.2733 11.015 71.6333 10.745C70.9933 10.465 70.4333 10.08 69.9533 9.59C69.4733 9.09 69.0983 8.515 68.8283 7.865C68.5583 7.215 68.4233 6.52 68.4233 5.78C68.4233 5.03 68.5583 4.335 68.8283 3.695C69.0983 3.045 69.4683 2.475 69.9383 1.985C70.4183 1.495 70.9733 1.115 71.6033 0.844999C72.2433 0.574999 72.9333 0.439999 73.6733 0.439999C74.4133 0.439999 75.0983 0.574999 75.7283 0.844999C76.3683 1.115 76.9283 1.495 77.4083 1.985C77.8883 2.475 78.2583 3.045 78.5183 3.695C78.7883 4.345 78.9233 5.045 78.9233 5.795C78.9233 6.535 78.7883 7.23 78.5183 7.88C78.2583 8.53 77.8883 9.1 77.4083 9.59C76.9383 10.08 76.3833 10.465 75.7433 10.745C75.1133 11.015 74.4333 11.15 73.7033 11.15ZM73.6733 9.8C74.4133 9.8 75.0683 9.63 75.6383 9.29C76.2083 8.94 76.6533 8.465 76.9733 7.865C77.3033 7.255 77.4683 6.56 77.4683 5.78C77.4683 5.2 77.3733 4.67 77.1833 4.19C77.0033 3.7 76.7433 3.275 76.4033 2.915C76.0633 2.555 75.6633 2.28 75.2033 2.09C74.7433 1.89 74.2333 1.79 73.6733 1.79C72.9333 1.79 72.2783 1.96 71.7083 2.3C71.1383 2.64 70.6883 3.11 70.3583 3.71C70.0383 4.31 69.8783 5 69.8783 5.78C69.8783 6.36 69.9733 6.9 70.1633 7.4C70.3533 7.89 70.6133 8.315 70.9433 8.675C71.2833 9.025 71.6833 9.3 72.1433 9.5C72.6133 9.7 73.1233 9.8 73.6733 9.8ZM78.6833 11.735L73.8083 6.86L74.7233 5.945L79.5833 10.82L78.6833 11.735ZM82.3415 6.47V5.285H85.1615C85.7715 5.285 86.2415 5.13 86.5715 4.82C86.9015 4.51 87.0665 4.09 87.0665 3.56C87.0665 3.06 86.9015 2.645 86.5715 2.315C86.2515 1.985 85.7865 1.82 85.1765 1.82H82.3415V0.59H85.2215C85.8815 0.59 86.4565 0.72 86.9465 0.979999C87.4365 1.23 87.8115 1.575 88.0715 2.015C88.3415 2.455 88.4765 2.96 88.4765 3.53C88.4765 4.12 88.3415 4.635 88.0715 5.075C87.8115 5.515 87.4365 5.86 86.9465 6.11C86.4565 6.35 85.8815 6.47 85.2215 6.47H82.3415ZM81.3965 11V0.59H82.8065V11H81.3965ZM87.3965 11L83.6165 6.335L84.9515 5.87L89.1815 11H87.3965ZM97.3549 11.15C96.6549 11.15 96.0199 10.985 95.4499 10.655C94.8899 10.325 94.4449 9.88 94.1149 9.32C93.7949 8.75 93.6349 8.12 93.6349 7.43C93.6349 6.73 93.7949 6.1 94.1149 5.54C94.4449 4.98 94.8899 4.54 95.4499 4.22C96.0199 3.89 96.6549 3.725 97.3549 3.725C97.9049 3.725 98.4149 3.83 98.8849 4.04C99.3549 4.24 99.7599 4.535 100.1 4.925L99.1999 5.825C98.9799 5.565 98.7099 5.37 98.3899 5.24C98.0799 5.1 97.7349 5.03 97.3549 5.03C96.9049 5.03 96.5049 5.135 96.1549 5.345C95.8049 5.545 95.5299 5.825 95.3299 6.185C95.1299 6.545 95.0299 6.96 95.0299 7.43C95.0299 7.9 95.1299 8.315 95.3299 8.675C95.5299 9.035 95.8049 9.32 96.1549 9.53C96.5049 9.74 96.9049 9.845 97.3549 9.845C97.7349 9.845 98.0799 9.78 98.3899 9.65C98.7099 9.51 98.9849 9.31 99.2149 9.05L100.1 9.95C99.7699 10.33 99.3649 10.625 98.8849 10.835C98.4149 11.045 97.9049 11.15 97.3549 11.15ZM104.735 11.15C104.035 11.15 103.405 10.985 102.845 10.655C102.285 10.325 101.84 9.88 101.51 9.32C101.18 8.75 101.015 8.115 101.015 7.415C101.015 6.725 101.18 6.105 101.51 5.555C101.84 4.995 102.285 4.55 102.845 4.22C103.405 3.89 104.035 3.725 104.735 3.725C105.425 3.725 106.05 3.89 106.61 4.22C107.18 4.54 107.63 4.98 107.96 5.54C108.29 6.1 108.455 6.725 108.455 7.415C108.455 8.115 108.29 8.75 107.96 9.32C107.63 9.88 107.18 10.325 106.61 10.655C106.05 10.985 105.425 11.15 104.735 11.15ZM104.735 9.845C105.185 9.845 105.585 9.74 105.935 9.53C106.285 9.32 106.56 9.035 106.76 8.675C106.96 8.305 107.06 7.885 107.06 7.415C107.06 6.955 106.955 6.545 106.745 6.185C106.545 5.825 106.27 5.545 105.92 5.345C105.58 5.135 105.185 5.03 104.735 5.03C104.285 5.03 103.885 5.135 103.535 5.345C103.185 5.545 102.91 5.825 102.71 6.185C102.51 6.545 102.41 6.955 102.41 7.415C102.41 7.885 102.51 8.305 102.71 8.675C102.91 9.035 103.185 9.32 103.535 9.53C103.885 9.74 104.285 9.845 104.735 9.845ZM113.178 11.15C112.518 11.15 111.928 10.99 111.408 10.67C110.888 10.34 110.473 9.895 110.163 9.335C109.863 8.775 109.713 8.145 109.713 7.445C109.713 6.745 109.863 6.115 110.163 5.555C110.473 4.995 110.888 4.55 111.408 4.22C111.928 3.89 112.518 3.725 113.178 3.725C113.708 3.725 114.188 3.84 114.618 4.07C115.048 4.29 115.393 4.6 115.653 5C115.923 5.39 116.073 5.845 116.103 6.365V8.51C116.073 9.02 115.928 9.475 115.668 9.875C115.408 10.275 115.063 10.59 114.633 10.82C114.203 11.04 113.718 11.15 113.178 11.15ZM113.403 9.875C113.853 9.875 114.243 9.77 114.573 9.56C114.913 9.35 115.178 9.065 115.368 8.705C115.558 8.335 115.653 7.915 115.653 7.445C115.653 6.955 115.553 6.53 115.353 6.17C115.163 5.81 114.898 5.525 114.558 5.315C114.228 5.105 113.838 5 113.388 5C112.938 5 112.543 5.105 112.203 5.315C111.863 5.525 111.593 5.815 111.393 6.185C111.203 6.545 111.108 6.96 111.108 7.43C111.108 7.91 111.203 8.335 111.393 8.705C111.593 9.065 111.863 9.35 112.203 9.56C112.553 9.77 112.953 9.875 113.403 9.875ZM116.928 11H115.563V9.08L115.818 7.34L115.563 5.615V0.289999H116.928V11ZM122.381 11.15C121.671 11.15 121.031 10.99 120.461 10.67C119.891 10.34 119.441 9.895 119.111 9.335C118.781 8.775 118.616 8.14 118.616 7.43C118.616 6.73 118.776 6.1 119.096 5.54C119.426 4.98 119.866 4.54 120.416 4.22C120.976 3.89 121.601 3.725 122.291 3.725C122.951 3.725 123.531 3.875 124.031 4.175C124.541 4.475 124.936 4.89 125.216 5.42C125.506 5.95 125.651 6.55 125.651 7.22C125.651 7.32 125.646 7.43 125.636 7.55C125.626 7.66 125.606 7.79 125.576 7.94H119.561V6.815H124.856L124.361 7.25C124.361 6.77 124.276 6.365 124.106 6.035C123.936 5.695 123.696 5.435 123.386 5.255C123.076 5.065 122.701 4.97 122.261 4.97C121.801 4.97 121.396 5.07 121.046 5.27C120.696 5.47 120.426 5.75 120.236 6.11C120.046 6.47 119.951 6.895 119.951 7.385C119.951 7.885 120.051 8.325 120.251 8.705C120.451 9.075 120.736 9.365 121.106 9.575C121.476 9.775 121.901 9.875 122.381 9.875C122.781 9.875 123.146 9.805 123.476 9.665C123.816 9.525 124.106 9.315 124.346 9.035L125.216 9.92C124.876 10.32 124.456 10.625 123.956 10.835C123.466 11.045 122.941 11.15 122.381 11.15ZM131.713 11V0.89H133.063V11H131.713ZM129.958 5.105V3.875H134.818V5.105H129.958ZM139.364 11.15C138.664 11.15 138.034 10.985 137.474 10.655C136.914 10.325 136.469 9.88 136.139 9.32C135.809 8.75 135.644 8.115 135.644 7.415C135.644 6.725 135.809 6.105 136.139 5.555C136.469 4.995 136.914 4.55 137.474 4.22C138.034 3.89 138.664 3.725 139.364 3.725C140.054 3.725 140.679 3.89 141.239 4.22C141.809 4.54 142.259 4.98 142.589 5.54C142.919 6.1 143.084 6.725 143.084 7.415C143.084 8.115 142.919 8.75 142.589 9.32C142.259 9.88 141.809 10.325 141.239 10.655C140.679 10.985 140.054 11.15 139.364 11.15ZM139.364 9.845C139.814 9.845 140.214 9.74 140.564 9.53C140.914 9.32 141.189 9.035 141.389 8.675C141.589 8.305 141.689 7.885 141.689 7.415C141.689 6.955 141.584 6.545 141.374 6.185C141.174 5.825 140.899 5.545 140.549 5.345C140.209 5.135 139.814 5.03 139.364 5.03C138.914 5.03 138.514 5.135 138.164 5.345C137.814 5.545 137.539 5.825 137.339 6.185C137.139 6.545 137.039 6.955 137.039 7.415C137.039 7.885 137.139 8.305 137.339 8.675C137.539 9.035 137.814 9.32 138.164 9.53C138.514 9.74 138.914 9.845 139.364 9.845ZM150.545 11L147.275 3.875H148.775L151.4 9.89H150.53L153.17 3.875H154.61L151.34 11H150.545ZM155.963 11V3.875H157.313V11H155.963ZM156.638 2.45C156.388 2.45 156.183 2.37 156.023 2.21C155.863 2.04 155.783 1.83 155.783 1.58C155.783 1.34 155.863 1.14 156.023 0.979999C156.183 0.809999 156.388 0.724999 156.638 0.724999C156.888 0.724999 157.093 0.809999 157.253 0.979999C157.413 1.14 157.493 1.34 157.493 1.58C157.493 1.83 157.413 2.04 157.253 2.21C157.093 2.37 156.888 2.45 156.638 2.45ZM161.755 11.15C161.355 11.15 160.975 11.1 160.615 11C160.265 10.89 159.94 10.74 159.64 10.55C159.34 10.35 159.08 10.115 158.86 9.845L159.73 8.975C159.99 9.295 160.29 9.535 160.63 9.695C160.97 9.845 161.35 9.92 161.77 9.92C162.19 9.92 162.515 9.85 162.745 9.71C162.975 9.56 163.09 9.355 163.09 9.095C163.09 8.835 162.995 8.635 162.805 8.495C162.625 8.345 162.39 8.225 162.1 8.135C161.81 8.035 161.5 7.94 161.17 7.85C160.85 7.75 160.545 7.625 160.255 7.475C159.965 7.325 159.725 7.12 159.535 6.86C159.355 6.6 159.265 6.255 159.265 5.825C159.265 5.395 159.37 5.025 159.58 4.715C159.79 4.395 160.08 4.15 160.45 3.98C160.83 3.81 161.285 3.725 161.815 3.725C162.375 3.725 162.87 3.825 163.3 4.025C163.74 4.215 164.1 4.505 164.38 4.895L163.51 5.765C163.31 5.505 163.06 5.305 162.76 5.165C162.47 5.025 162.14 4.955 161.77 4.955C161.38 4.955 161.08 5.025 160.87 5.165C160.67 5.295 160.57 5.48 160.57 5.72C160.57 5.96 160.66 6.145 160.84 6.275C161.02 6.405 161.255 6.515 161.545 6.605C161.845 6.695 162.155 6.79 162.475 6.89C162.795 6.98 163.1 7.105 163.39 7.265C163.68 7.425 163.915 7.64 164.095 7.91C164.285 8.18 164.38 8.535 164.38 8.975C164.38 9.645 164.14 10.175 163.66 10.565C163.19 10.955 162.555 11.15 161.755 11.15ZM166.094 11V3.875H167.444V11H166.094ZM166.769 2.45C166.519 2.45 166.314 2.37 166.154 2.21C165.994 2.04 165.914 1.83 165.914 1.58C165.914 1.34 165.994 1.14 166.154 0.979999C166.314 0.809999 166.519 0.724999 166.769 0.724999C167.019 0.724999 167.224 0.809999 167.384 0.979999C167.544 1.14 167.624 1.34 167.624 1.58C167.624 1.83 167.544 2.04 167.384 2.21C167.224 2.37 167.019 2.45 166.769 2.45ZM170.716 11V0.89H172.066V11H170.716ZM168.961 5.105V3.875H173.821V5.105H168.961ZM178.879 11V0.59H180.289V11H178.879ZM179.839 6.425V5.135H185.269V6.425H179.839ZM179.839 1.88V0.59H185.524V1.88H179.839ZM187.323 11V3.875H188.673V11H187.323ZM188.673 6.935L188.163 6.71C188.163 5.8 188.373 5.075 188.793 4.535C189.213 3.995 189.818 3.725 190.608 3.725C190.968 3.725 191.293 3.79 191.583 3.92C191.873 4.04 192.143 4.245 192.393 4.535L191.508 5.45C191.358 5.29 191.193 5.175 191.013 5.105C190.833 5.035 190.623 5 190.383 5C189.883 5 189.473 5.16 189.153 5.48C188.833 5.8 188.673 6.285 188.673 6.935ZM196.551 11.15C195.851 11.15 195.221 10.985 194.661 10.655C194.101 10.325 193.656 9.88 193.326 9.32C192.996 8.75 192.831 8.115 192.831 7.415C192.831 6.725 192.996 6.105 193.326 5.555C193.656 4.995 194.101 4.55 194.661 4.22C195.221 3.89 195.851 3.725 196.551 3.725C197.241 3.725 197.866 3.89 198.426 4.22C198.996 4.54 199.446 4.98 199.776 5.54C200.106 6.1 200.271 6.725 200.271 7.415C200.271 8.115 200.106 8.75 199.776 9.32C199.446 9.88 198.996 10.325 198.426 10.655C197.866 10.985 197.241 11.15 196.551 11.15ZM196.551 9.845C197.001 9.845 197.401 9.74 197.751 9.53C198.101 9.32 198.376 9.035 198.576 8.675C198.776 8.305 198.876 7.885 198.876 7.415C198.876 6.955 198.771 6.545 198.561 6.185C198.361 5.825 198.086 5.545 197.736 5.345C197.396 5.135 197.001 5.03 196.551 5.03C196.101 5.03 195.701 5.135 195.351 5.345C195.001 5.545 194.726 5.825 194.526 6.185C194.326 6.545 194.226 6.955 194.226 7.415C194.226 7.885 194.326 8.305 194.526 8.675C194.726 9.035 195.001 9.32 195.351 9.53C195.701 9.74 196.101 9.845 196.551 9.845ZM207.02 11V6.845C207.02 6.305 206.85 5.86 206.51 5.51C206.17 5.16 205.73 4.985 205.19 4.985C204.83 4.985 204.51 5.065 204.23 5.225C203.95 5.385 203.73 5.605 203.57 5.885C203.41 6.165 203.33 6.485 203.33 6.845L202.775 6.53C202.775 5.99 202.895 5.51 203.135 5.09C203.375 4.67 203.71 4.34 204.14 4.1C204.57 3.85 205.055 3.725 205.595 3.725C206.135 3.725 206.61 3.86 207.02 4.13C207.44 4.4 207.77 4.755 208.01 5.195C208.25 5.625 208.37 6.085 208.37 6.575V11H207.02ZM201.98 11V3.875H203.33V11H201.98ZM211.392 11V0.89H212.742V11H211.392ZM209.637 5.105V3.875H214.497V5.105H209.637ZM219.087 11.15C218.377 11.15 217.737 10.99 217.167 10.67C216.597 10.34 216.147 9.895 215.817 9.335C215.487 8.775 215.322 8.14 215.322 7.43C215.322 6.73 215.482 6.1 215.802 5.54C216.132 4.98 216.572 4.54 217.122 4.22C217.682 3.89 218.307 3.725 218.997 3.725C219.657 3.725 220.237 3.875 220.737 4.175C221.247 4.475 221.642 4.89 221.922 5.42C222.212 5.95 222.357 6.55 222.357 7.22C222.357 7.32 222.352 7.43 222.342 7.55C222.332 7.66 222.312 7.79 222.282 7.94H216.267V6.815H221.562L221.067 7.25C221.067 6.77 220.982 6.365 220.812 6.035C220.642 5.695 220.402 5.435 220.092 5.255C219.782 5.065 219.407 4.97 218.967 4.97C218.507 4.97 218.102 5.07 217.752 5.27C217.402 5.47 217.132 5.75 216.942 6.11C216.752 6.47 216.657 6.895 216.657 7.385C216.657 7.885 216.757 8.325 216.957 8.705C217.157 9.075 217.442 9.365 217.812 9.575C218.182 9.775 218.607 9.875 219.087 9.875C219.487 9.875 219.852 9.805 220.182 9.665C220.522 9.525 220.812 9.315 221.052 9.035L221.922 9.92C221.582 10.32 221.162 10.625 220.662 10.835C220.172 11.045 219.647 11.15 219.087 11.15ZM229.057 11V6.845C229.057 6.305 228.887 5.86 228.547 5.51C228.207 5.16 227.767 4.985 227.227 4.985C226.867 4.985 226.547 5.065 226.267 5.225C225.987 5.385 225.767 5.605 225.607 5.885C225.447 6.165 225.367 6.485 225.367 6.845L224.812 6.53C224.812 5.99 224.932 5.51 225.172 5.09C225.412 4.67 225.747 4.34 226.177 4.1C226.607 3.85 227.092 3.725 227.632 3.725C228.172 3.725 228.647 3.86 229.057 4.13C229.477 4.4 229.807 4.755 230.047 5.195C230.287 5.625 230.407 6.085 230.407 6.575V11H229.057ZM224.017 11V3.875H225.367V11H224.017ZM235.437 11.15C234.777 11.15 234.187 10.99 233.667 10.67C233.147 10.34 232.732 9.895 232.422 9.335C232.122 8.775 231.972 8.145 231.972 7.445C231.972 6.745 232.122 6.115 232.422 5.555C232.732 4.995 233.147 4.55 233.667 4.22C234.187 3.89 234.777 3.725 235.437 3.725C235.967 3.725 236.447 3.84 236.877 4.07C237.307 4.29 237.652 4.6 237.912 5C238.182 5.39 238.332 5.845 238.362 6.365V8.51C238.332 9.02 238.187 9.475 237.927 9.875C237.667 10.275 237.322 10.59 236.892 10.82C236.462 11.04 235.977 11.15 235.437 11.15ZM235.662 9.875C236.112 9.875 236.502 9.77 236.832 9.56C237.172 9.35 237.437 9.065 237.627 8.705C237.817 8.335 237.912 7.915 237.912 7.445C237.912 6.955 237.812 6.53 237.612 6.17C237.422 5.81 237.157 5.525 236.817 5.315C236.487 5.105 236.097 5 235.647 5C235.197 5 234.802 5.105 234.462 5.315C234.122 5.525 233.852 5.815 233.652 6.185C233.462 6.545 233.367 6.96 233.367 7.43C233.367 7.91 233.462 8.335 233.652 8.705C233.852 9.065 234.122 9.35 234.462 9.56C234.812 9.77 235.212 9.875 235.662 9.875ZM239.187 11H237.822V9.08L238.077 7.34L237.822 5.615V0.289999H239.187V11ZM0.417012 30V19.59H1.40701L5.81701 26.835H5.14201L9.55201 19.59H10.542V30H9.13201V22.065L9.46201 22.155L5.98201 27.87H4.99201L1.51201 22.155L1.82701 22.065V30H0.417012ZM16.2475 30.15C15.5375 30.15 14.8975 29.99 14.3275 29.67C13.7575 29.34 13.3075 28.895 12.9775 28.335C12.6475 27.775 12.4825 27.14 12.4825 26.43C12.4825 25.73 12.6425 25.1 12.9625 24.54C13.2925 23.98 13.7325 23.54 14.2825 23.22C14.8425 22.89 15.4675 22.725 16.1575 22.725C16.8175 22.725 17.3975 22.875 17.8975 23.175C18.4075 23.475 18.8025 23.89 19.0825 24.42C19.3725 24.95 19.5175 25.55 19.5175 26.22C19.5175 26.32 19.5125 26.43 19.5025 26.55C19.4925 26.66 19.4725 26.79 19.4425 26.94H13.4275V25.815H18.7225L18.2275 26.25C18.2275 25.77 18.1425 25.365 17.9725 25.035C17.8025 24.695 17.5625 24.435 17.2525 24.255C16.9425 24.065 16.5675 23.97 16.1275 23.97C15.6675 23.97 15.2625 24.07 14.9125 24.27C14.5625 24.47 14.2925 24.75 14.1025 25.11C13.9125 25.47 13.8175 25.895 13.8175 26.385C13.8175 26.885 13.9175 27.325 14.1175 27.705C14.3175 28.075 14.6025 28.365 14.9725 28.575C15.3425 28.775 15.7675 28.875 16.2475 28.875C16.6475 28.875 17.0125 28.805 17.3425 28.665C17.6825 28.525 17.9725 28.315 18.2125 28.035L19.0825 28.92C18.7425 29.32 18.3225 29.625 17.8225 29.835C17.3325 30.045 16.8075 30.15 16.2475 30.15ZM26.217 30V25.845C26.217 25.305 26.047 24.86 25.707 24.51C25.367 24.16 24.927 23.985 24.387 23.985C24.027 23.985 23.707 24.065 23.427 24.225C23.147 24.385 22.927 24.605 22.767 24.885C22.607 25.165 22.527 25.485 22.527 25.845L21.972 25.53C21.972 24.99 22.092 24.51 22.332 24.09C22.572 23.67 22.907 23.34 23.337 23.1C23.767 22.85 24.252 22.725 24.792 22.725C25.332 22.725 25.807 22.86 26.217 23.13C26.637 23.4 26.967 23.755 27.207 24.195C27.447 24.625 27.567 25.085 27.567 25.575V30H26.217ZM21.177 30V22.875H22.527V30H21.177ZM30.5894 30V19.89H31.9394V30H30.5894ZM28.8344 24.105V22.875H33.6944V24.105H28.8344ZM38.2396 30.15C37.5396 30.15 36.9096 29.985 36.3496 29.655C35.7896 29.325 35.3446 28.88 35.0146 28.32C34.6846 27.75 34.5196 27.115 34.5196 26.415C34.5196 25.725 34.6846 25.105 35.0146 24.555C35.3446 23.995 35.7896 23.55 36.3496 23.22C36.9096 22.89 37.5396 22.725 38.2396 22.725C38.9296 22.725 39.5546 22.89 40.1146 23.22C40.6846 23.54 41.1346 23.98 41.4646 24.54C41.7946 25.1 41.9596 25.725 41.9596 26.415C41.9596 27.115 41.7946 27.75 41.4646 28.32C41.1346 28.88 40.6846 29.325 40.1146 29.655C39.5546 29.985 38.9296 30.15 38.2396 30.15ZM38.2396 28.845C38.6896 28.845 39.0896 28.74 39.4396 28.53C39.7896 28.32 40.0646 28.035 40.2646 27.675C40.4646 27.305 40.5646 26.885 40.5646 26.415C40.5646 25.955 40.4596 25.545 40.2496 25.185C40.0496 24.825 39.7746 24.545 39.4246 24.345C39.0846 24.135 38.6896 24.03 38.2396 24.03C37.7896 24.03 37.3896 24.135 37.0396 24.345C36.6896 24.545 36.4146 24.825 36.2146 25.185C36.0146 25.545 35.9146 25.955 35.9146 26.415C35.9146 26.885 36.0146 27.305 36.2146 27.675C36.4146 28.035 36.6896 28.32 37.0396 28.53C37.3896 28.74 37.7896 28.845 38.2396 28.845ZM43.6682 30V22.875H45.0182V30H43.6682ZM45.0182 25.935L44.5082 25.71C44.5082 24.8 44.7182 24.075 45.1382 23.535C45.5582 22.995 46.1632 22.725 46.9532 22.725C47.3132 22.725 47.6382 22.79 47.9282 22.92C48.2182 23.04 48.4882 23.245 48.7382 23.535L47.8532 24.45C47.7032 24.29 47.5382 24.175 47.3582 24.105C47.1782 24.035 46.9682 24 46.7282 24C46.2282 24 45.8182 24.16 45.4982 24.48C45.1782 24.8 45.0182 25.285 45.0182 25.935ZM56.4775 30.15C55.8275 30.15 55.2375 29.99 54.7075 29.67C54.1775 29.34 53.7575 28.895 53.4475 28.335C53.1475 27.775 52.9975 27.145 52.9975 26.445C52.9975 25.745 53.1475 25.115 53.4475 24.555C53.7575 23.995 54.1725 23.55 54.6925 23.22C55.2225 22.89 55.8175 22.725 56.4775 22.725C57.0175 22.725 57.4975 22.84 57.9175 23.07C58.3475 23.29 58.6925 23.6 58.9525 24C59.2125 24.39 59.3575 24.845 59.3875 25.365V27.51C59.3575 28.02 59.2125 28.475 58.9525 28.875C58.7025 29.275 58.3625 29.59 57.9325 29.82C57.5125 30.04 57.0275 30.15 56.4775 30.15ZM56.7025 28.875C57.3725 28.875 57.9125 28.65 58.3225 28.2C58.7325 27.74 58.9375 27.155 58.9375 26.445C58.9375 25.955 58.8425 25.53 58.6525 25.17C58.4725 24.8 58.2125 24.515 57.8725 24.315C57.5325 24.105 57.1375 24 56.6875 24C56.2375 24 55.8375 24.105 55.4875 24.315C55.1475 24.525 54.8775 24.815 54.6775 25.185C54.4875 25.545 54.3925 25.96 54.3925 26.43C54.3925 26.91 54.4875 27.335 54.6775 27.705C54.8775 28.065 55.1525 28.35 55.5025 28.56C55.8525 28.77 56.2525 28.875 56.7025 28.875ZM58.8475 30V28.08L59.1025 26.34L58.8475 24.615V22.875H60.2125V30H58.8475ZM67.4055 30V25.845C67.4055 25.305 67.2355 24.86 66.8955 24.51C66.5555 24.16 66.1155 23.985 65.5755 23.985C65.2155 23.985 64.8955 24.065 64.6155 24.225C64.3355 24.385 64.1155 24.605 63.9555 24.885C63.7955 25.165 63.7155 25.485 63.7155 25.845L63.1605 25.53C63.1605 24.99 63.2805 24.51 63.5205 24.09C63.7605 23.67 64.0955 23.34 64.5255 23.1C64.9555 22.85 65.4405 22.725 65.9805 22.725C66.5205 22.725 66.9955 22.86 67.4055 23.13C67.8255 23.4 68.1555 23.755 68.3955 24.195C68.6355 24.625 68.7555 25.085 68.7555 25.575V30H67.4055ZM62.3655 30V22.875H63.7155V30H62.3655ZM73.7858 30.15C73.1258 30.15 72.5358 29.99 72.0158 29.67C71.4958 29.34 71.0808 28.895 70.7708 28.335C70.4708 27.775 70.3208 27.145 70.3208 26.445C70.3208 25.745 70.4708 25.115 70.7708 24.555C71.0808 23.995 71.4958 23.55 72.0158 23.22C72.5358 22.89 73.1258 22.725 73.7858 22.725C74.3158 22.725 74.7958 22.84 75.2258 23.07C75.6558 23.29 76.0008 23.6 76.2608 24C76.5308 24.39 76.6808 24.845 76.7108 25.365V27.51C76.6808 28.02 76.5358 28.475 76.2758 28.875C76.0158 29.275 75.6708 29.59 75.2408 29.82C74.8108 30.04 74.3258 30.15 73.7858 30.15ZM74.0108 28.875C74.4608 28.875 74.8508 28.77 75.1808 28.56C75.5208 28.35 75.7858 28.065 75.9758 27.705C76.1658 27.335 76.2608 26.915 76.2608 26.445C76.2608 25.955 76.1608 25.53 75.9608 25.17C75.7708 24.81 75.5058 24.525 75.1658 24.315C74.8358 24.105 74.4458 24 73.9958 24C73.5458 24 73.1508 24.105 72.8108 24.315C72.4708 24.525 72.2008 24.815 72.0008 25.185C71.8108 25.545 71.7158 25.96 71.7158 26.43C71.7158 26.91 71.8108 27.335 72.0008 27.705C72.2008 28.065 72.4708 28.35 72.8108 28.56C73.1608 28.77 73.5608 28.875 74.0108 28.875ZM77.5358 30H76.1708V28.08L76.4258 26.34L76.1708 24.615V19.29H77.5358V30ZM84.0913 30V19.89H85.4413V30H84.0913ZM82.3363 24.105V22.875H87.1963V24.105H82.3363ZM91.5166 30.15C90.8666 30.15 90.2766 29.99 89.7466 29.67C89.2166 29.34 88.7966 28.895 88.4866 28.335C88.1866 27.775 88.0366 27.145 88.0366 26.445C88.0366 25.745 88.1866 25.115 88.4866 24.555C88.7966 23.995 89.2116 23.55 89.7316 23.22C90.2616 22.89 90.8566 22.725 91.5166 22.725C92.0566 22.725 92.5366 22.84 92.9566 23.07C93.3866 23.29 93.7316 23.6 93.9916 24C94.2516 24.39 94.3966 24.845 94.4266 25.365V27.51C94.3966 28.02 94.2516 28.475 93.9916 28.875C93.7416 29.275 93.4016 29.59 92.9716 29.82C92.5516 30.04 92.0666 30.15 91.5166 30.15ZM91.7416 28.875C92.4116 28.875 92.9516 28.65 93.3616 28.2C93.7716 27.74 93.9766 27.155 93.9766 26.445C93.9766 25.955 93.8816 25.53 93.6916 25.17C93.5116 24.8 93.2516 24.515 92.9116 24.315C92.5716 24.105 92.1766 24 91.7266 24C91.2766 24 90.8766 24.105 90.5266 24.315C90.1866 24.525 89.9166 24.815 89.7166 25.185C89.5266 25.545 89.4316 25.96 89.4316 26.43C89.4316 26.91 89.5266 27.335 89.7166 27.705C89.9166 28.065 90.1916 28.35 90.5416 28.56C90.8916 28.77 91.2916 28.875 91.7416 28.875ZM93.8866 30V28.08L94.1416 26.34L93.8866 24.615V22.875H95.2516V30H93.8866ZM101.965 30L98.6346 26.355L101.935 22.875H103.57L99.8946 26.715L99.9546 25.935L103.705 30H101.965ZM97.4046 30V19.29H98.7546V30H97.4046ZM107.953 30.15C107.243 30.15 106.603 29.99 106.033 29.67C105.463 29.34 105.013 28.895 104.683 28.335C104.353 27.775 104.188 27.14 104.188 26.43C104.188 25.73 104.348 25.1 104.668 24.54C104.998 23.98 105.438 23.54 105.988 23.22C106.548 22.89 107.173 22.725 107.863 22.725C108.523 22.725 109.103 22.875 109.603 23.175C110.113 23.475 110.508 23.89 110.788 24.42C111.078 24.95 111.223 25.55 111.223 26.22C111.223 26.32 111.218 26.43 111.208 26.55C111.198 26.66 111.178 26.79 111.148 26.94H105.133V25.815H110.428L109.933 26.25C109.933 25.77 109.848 25.365 109.678 25.035C109.508 24.695 109.268 24.435 108.958 24.255C108.648 24.065 108.273 23.97 107.833 23.97C107.373 23.97 106.968 24.07 106.618 24.27C106.268 24.47 105.998 24.75 105.808 25.11C105.618 25.47 105.523 25.895 105.523 26.385C105.523 26.885 105.623 27.325 105.823 27.705C106.023 28.075 106.308 28.365 106.678 28.575C107.048 28.775 107.473 28.875 107.953 28.875C108.353 28.875 108.718 28.805 109.048 28.665C109.388 28.525 109.678 28.315 109.918 28.035L110.788 28.92C110.448 29.32 110.028 29.625 109.528 29.835C109.038 30.045 108.513 30.15 107.953 30.15ZM118.53 30.06L115.44 22.875H116.94L119.235 28.5H118.755L121.17 22.875H122.67L119.34 30.06H118.53ZM116.49 32.985L118.59 28.68L119.34 30.06L117.99 32.985H116.49ZM126.942 30.15C126.242 30.15 125.612 29.985 125.052 29.655C124.492 29.325 124.047 28.88 123.717 28.32C123.387 27.75 123.222 27.115 123.222 26.415C123.222 25.725 123.387 25.105 123.717 24.555C124.047 23.995 124.492 23.55 125.052 23.22C125.612 22.89 126.242 22.725 126.942 22.725C127.632 22.725 128.257 22.89 128.817 23.22C129.387 23.54 129.837 23.98 130.167 24.54C130.497 25.1 130.662 25.725 130.662 26.415C130.662 27.115 130.497 27.75 130.167 28.32C129.837 28.88 129.387 29.325 128.817 29.655C128.257 29.985 127.632 30.15 126.942 30.15ZM126.942 28.845C127.392 28.845 127.792 28.74 128.142 28.53C128.492 28.32 128.767 28.035 128.967 27.675C129.167 27.305 129.267 26.885 129.267 26.415C129.267 25.955 129.162 25.545 128.952 25.185C128.752 24.825 128.477 24.545 128.127 24.345C127.787 24.135 127.392 24.03 126.942 24.03C126.492 24.03 126.092 24.135 125.742 24.345C125.392 24.545 125.117 24.825 124.917 25.185C124.717 25.545 124.617 25.955 124.617 26.415C124.617 26.885 124.717 27.305 124.917 27.675C125.117 28.035 125.392 28.32 125.742 28.53C126.092 28.74 126.492 28.845 126.942 28.845ZM135.235 30.15C134.655 30.15 134.13 30.02 133.66 29.76C133.2 29.49 132.84 29.12 132.58 28.65C132.32 28.18 132.19 27.635 132.19 27.015V22.875H133.54V26.955C133.54 27.345 133.605 27.685 133.735 27.975C133.875 28.255 134.075 28.47 134.335 28.62C134.595 28.77 134.9 28.845 135.25 28.845C135.78 28.845 136.195 28.68 136.495 28.35C136.795 28.01 136.945 27.545 136.945 26.955V22.875H138.295V27.015C138.295 27.635 138.165 28.18 137.905 28.65C137.645 29.12 137.285 29.49 136.825 29.76C136.375 30.02 135.845 30.15 135.235 30.15ZM140.292 30V22.875H141.642V30H140.292ZM141.642 25.935L141.132 25.71C141.132 24.8 141.342 24.075 141.762 23.535C142.182 22.995 142.787 22.725 143.577 22.725C143.937 22.725 144.262 22.79 144.552 22.92C144.842 23.04 145.112 23.245 145.362 23.535L144.477 24.45C144.327 24.29 144.162 24.175 143.982 24.105C143.802 24.035 143.592 24 143.352 24C142.852 24 142.442 24.16 142.122 24.48C141.802 24.8 141.642 25.285 141.642 25.935ZM153.327 30.15C152.627 30.15 151.992 29.985 151.422 29.655C150.862 29.325 150.417 28.88 150.087 28.32C149.767 27.75 149.607 27.12 149.607 26.43C149.607 25.73 149.767 25.1 150.087 24.54C150.417 23.98 150.862 23.54 151.422 23.22C151.992 22.89 152.627 22.725 153.327 22.725C153.877 22.725 154.387 22.83 154.857 23.04C155.327 23.24 155.732 23.535 156.072 23.925L155.172 24.825C154.952 24.565 154.682 24.37 154.362 24.24C154.052 24.1 153.707 24.03 153.327 24.03C152.877 24.03 152.477 24.135 152.127 24.345C151.777 24.545 151.502 24.825 151.302 25.185C151.102 25.545 151.002 25.96 151.002 26.43C151.002 26.9 151.102 27.315 151.302 27.675C151.502 28.035 151.777 28.32 152.127 28.53C152.477 28.74 152.877 28.845 153.327 28.845C153.707 28.845 154.052 28.78 154.362 28.65C154.682 28.51 154.957 28.31 155.187 28.05L156.072 28.95C155.742 29.33 155.337 29.625 154.857 29.835C154.387 30.045 153.877 30.15 153.327 30.15ZM160.706 30.15C160.006 30.15 159.376 29.985 158.816 29.655C158.256 29.325 157.811 28.88 157.481 28.32C157.151 27.75 156.986 27.115 156.986 26.415C156.986 25.725 157.151 25.105 157.481 24.555C157.811 23.995 158.256 23.55 158.816 23.22C159.376 22.89 160.006 22.725 160.706 22.725C161.396 22.725 162.021 22.89 162.581 23.22C163.151 23.54 163.601 23.98 163.931 24.54C164.261 25.1 164.426 25.725 164.426 26.415C164.426 27.115 164.261 27.75 163.931 28.32C163.601 28.88 163.151 29.325 162.581 29.655C162.021 29.985 161.396 30.15 160.706 30.15ZM160.706 28.845C161.156 28.845 161.556 28.74 161.906 28.53C162.256 28.32 162.531 28.035 162.731 27.675C162.931 27.305 163.031 26.885 163.031 26.415C163.031 25.955 162.926 25.545 162.716 25.185C162.516 24.825 162.241 24.545 161.891 24.345C161.551 24.135 161.156 24.03 160.706 24.03C160.256 24.03 159.856 24.135 159.506 24.345C159.156 24.545 158.881 24.825 158.681 25.185C158.481 25.545 158.381 25.955 158.381 26.415C158.381 26.885 158.481 27.305 158.681 27.675C158.881 28.035 159.156 28.32 159.506 28.53C159.856 28.74 160.256 28.845 160.706 28.845ZM169.15 30.15C168.49 30.15 167.9 29.99 167.38 29.67C166.86 29.34 166.445 28.895 166.135 28.335C165.835 27.775 165.685 27.145 165.685 26.445C165.685 25.745 165.835 25.115 166.135 24.555C166.445 23.995 166.86 23.55 167.38 23.22C167.9 22.89 168.49 22.725 169.15 22.725C169.68 22.725 170.16 22.84 170.59 23.07C171.02 23.29 171.365 23.6 171.625 24C171.895 24.39 172.045 24.845 172.075 25.365V27.51C172.045 28.02 171.9 28.475 171.64 28.875C171.38 29.275 171.035 29.59 170.605 29.82C170.175 30.04 169.69 30.15 169.15 30.15ZM169.375 28.875C169.825 28.875 170.215 28.77 170.545 28.56C170.885 28.35 171.15 28.065 171.34 27.705C171.53 27.335 171.625 26.915 171.625 26.445C171.625 25.955 171.525 25.53 171.325 25.17C171.135 24.81 170.87 24.525 170.53 24.315C170.2 24.105 169.81 24 169.36 24C168.91 24 168.515 24.105 168.175 24.315C167.835 24.525 167.565 24.815 167.365 25.185C167.175 25.545 167.08 25.96 167.08 26.43C167.08 26.91 167.175 27.335 167.365 27.705C167.565 28.065 167.835 28.35 168.175 28.56C168.525 28.77 168.925 28.875 169.375 28.875ZM172.9 30H171.535V28.08L171.79 26.34L171.535 24.615V19.29H172.9V30ZM175.068 30V22.875H176.418V30H175.068ZM175.743 21.45C175.493 21.45 175.288 21.37 175.128 21.21C174.968 21.04 174.888 20.83 174.888 20.58C174.888 20.34 174.968 20.14 175.128 19.98C175.288 19.81 175.493 19.725 175.743 19.725C175.993 19.725 176.198 19.81 176.358 19.98C176.518 20.14 176.598 20.34 176.598 20.58C176.598 20.83 176.518 21.04 176.358 21.21C176.198 21.37 175.993 21.45 175.743 21.45ZM183.635 30V25.845C183.635 25.305 183.465 24.86 183.125 24.51C182.785 24.16 182.345 23.985 181.805 23.985C181.445 23.985 181.125 24.065 180.845 24.225C180.565 24.385 180.345 24.605 180.185 24.885C180.025 25.165 179.945 25.485 179.945 25.845L179.39 25.53C179.39 24.99 179.51 24.51 179.75 24.09C179.99 23.67 180.325 23.34 180.755 23.1C181.185 22.85 181.67 22.725 182.21 22.725C182.75 22.725 183.225 22.86 183.635 23.13C184.055 23.4 184.385 23.755 184.625 24.195C184.865 24.625 184.985 25.085 184.985 25.575V30H183.635ZM178.595 30V22.875H179.945V30H178.595ZM189.955 33.135C189.225 33.135 188.575 33 188.005 32.73C187.445 32.46 186.995 32.08 186.655 31.59L187.525 30.705C187.815 31.075 188.16 31.355 188.56 31.545C188.96 31.745 189.435 31.845 189.985 31.845C190.715 31.845 191.29 31.65 191.71 31.26C192.14 30.88 192.355 30.365 192.355 29.715V27.945L192.595 26.34L192.355 24.75V22.875H193.705V29.715C193.705 30.395 193.545 30.99 193.225 31.5C192.915 32.01 192.475 32.41 191.905 32.7C191.345 32.99 190.695 33.135 189.955 33.135ZM189.955 29.88C189.305 29.88 188.72 29.725 188.2 29.415C187.69 29.105 187.285 28.68 186.985 28.14C186.685 27.59 186.535 26.975 186.535 26.295C186.535 25.615 186.685 25.01 186.985 24.48C187.285 23.94 187.69 23.515 188.2 23.205C188.72 22.885 189.305 22.725 189.955 22.725C190.515 22.725 191.01 22.835 191.44 23.055C191.87 23.275 192.21 23.585 192.46 23.985C192.72 24.375 192.86 24.835 192.88 25.365V27.255C192.85 27.775 192.705 28.235 192.445 28.635C192.195 29.025 191.855 29.33 191.425 29.55C190.995 29.77 190.505 29.88 189.955 29.88ZM190.225 28.605C190.665 28.605 191.05 28.51 191.38 28.32C191.72 28.13 191.98 27.865 192.16 27.525C192.34 27.175 192.43 26.77 192.43 26.31C192.43 25.85 192.335 25.45 192.145 25.11C191.965 24.76 191.71 24.49 191.38 24.3C191.05 24.1 190.66 24 190.21 24C189.76 24 189.365 24.1 189.025 24.3C188.685 24.49 188.415 24.76 188.215 25.11C188.025 25.45 187.93 25.845 187.93 26.295C187.93 26.745 188.025 27.145 188.215 27.495C188.415 27.845 188.685 28.12 189.025 28.32C189.375 28.51 189.775 28.605 190.225 28.605ZM201.447 30.15C201.047 30.15 200.667 30.1 200.307 30C199.957 29.89 199.632 29.74 199.332 29.55C199.032 29.35 198.772 29.115 198.552 28.845L199.422 27.975C199.682 28.295 199.982 28.535 200.322 28.695C200.662 28.845 201.042 28.92 201.462 28.92C201.882 28.92 202.207 28.85 202.437 28.71C202.667 28.56 202.782 28.355 202.782 28.095C202.782 27.835 202.687 27.635 202.497 27.495C202.317 27.345 202.082 27.225 201.792 27.135C201.502 27.035 201.192 26.94 200.862 26.85C200.542 26.75 200.237 26.625 199.947 26.475C199.657 26.325 199.417 26.12 199.227 25.86C199.047 25.6 198.957 25.255 198.957 24.825C198.957 24.395 199.062 24.025 199.272 23.715C199.482 23.395 199.772 23.15 200.142 22.98C200.522 22.81 200.977 22.725 201.507 22.725C202.067 22.725 202.562 22.825 202.992 23.025C203.432 23.215 203.792 23.505 204.072 23.895L203.202 24.765C203.002 24.505 202.752 24.305 202.452 24.165C202.162 24.025 201.832 23.955 201.462 23.955C201.072 23.955 200.772 24.025 200.562 24.165C200.362 24.295 200.262 24.48 200.262 24.72C200.262 24.96 200.352 25.145 200.532 25.275C200.712 25.405 200.947 25.515 201.237 25.605C201.537 25.695 201.847 25.79 202.167 25.89C202.487 25.98 202.792 26.105 203.082 26.265C203.372 26.425 203.607 26.64 203.787 26.91C203.977 27.18 204.072 27.535 204.072 27.975C204.072 28.645 203.832 29.175 203.352 29.565C202.882 29.955 202.247 30.15 201.447 30.15ZM210.331 30L207.001 26.355L210.301 22.875H211.936L208.261 26.715L208.321 25.935L212.071 30H210.331ZM205.771 30V19.29H207.121V30H205.771ZM213.18 30V22.875H214.53V30H213.18ZM213.855 21.45C213.605 21.45 213.4 21.37 213.24 21.21C213.08 21.04 213 20.83 213 20.58C213 20.34 213.08 20.14 213.24 19.98C213.4 19.81 213.605 19.725 213.855 19.725C214.105 19.725 214.31 19.81 214.47 19.98C214.63 20.14 214.71 20.34 214.71 20.58C214.71 20.83 214.63 21.04 214.47 21.21C214.31 21.37 214.105 21.45 213.855 21.45ZM216.707 30V19.29H218.057V30H216.707ZM220.22 30V19.29H221.57V30H220.22ZM225.998 30.15C225.598 30.15 225.218 30.1 224.858 30C224.508 29.89 224.183 29.74 223.883 29.55C223.583 29.35 223.323 29.115 223.103 28.845L223.973 27.975C224.233 28.295 224.533 28.535 224.873 28.695C225.213 28.845 225.593 28.92 226.013 28.92C226.433 28.92 226.758 28.85 226.988 28.71C227.218 28.56 227.333 28.355 227.333 28.095C227.333 27.835 227.238 27.635 227.048 27.495C226.868 27.345 226.633 27.225 226.343 27.135C226.053 27.035 225.743 26.94 225.413 26.85C225.093 26.75 224.788 26.625 224.498 26.475C224.208 26.325 223.968 26.12 223.778 25.86C223.598 25.6 223.508 25.255 223.508 24.825C223.508 24.395 223.613 24.025 223.823 23.715C224.033 23.395 224.323 23.15 224.693 22.98C225.073 22.81 225.528 22.725 226.058 22.725C226.618 22.725 227.113 22.825 227.543 23.025C227.983 23.215 228.343 23.505 228.623 23.895L227.753 24.765C227.553 24.505 227.303 24.305 227.003 24.165C226.713 24.025 226.383 23.955 226.013 23.955C225.623 23.955 225.323 24.025 225.113 24.165C224.913 24.295 224.813 24.48 224.813 24.72C224.813 24.96 224.903 25.145 225.083 25.275C225.263 25.405 225.498 25.515 225.788 25.605C226.088 25.695 226.398 25.79 226.718 25.89C227.038 25.98 227.343 26.105 227.633 26.265C227.923 26.425 228.158 26.64 228.338 26.91C228.528 27.18 228.623 27.535 228.623 27.975C228.623 28.645 228.383 29.175 227.903 29.565C227.433 29.955 226.798 30.15 225.998 30.15ZM234.724 30V19.89H236.074V30H234.724ZM232.969 24.105V22.875H237.829V24.105H232.969ZM242.374 30.15C241.674 30.15 241.044 29.985 240.484 29.655C239.924 29.325 239.479 28.88 239.149 28.32C238.819 27.75 238.654 27.115 238.654 26.415C238.654 25.725 238.819 25.105 239.149 24.555C239.479 23.995 239.924 23.55 240.484 23.22C241.044 22.89 241.674 22.725 242.374 22.725C243.064 22.725 243.689 22.89 244.249 23.22C244.819 23.54 245.269 23.98 245.599 24.54C245.929 25.1 246.094 25.725 246.094 26.415C246.094 27.115 245.929 27.75 245.599 28.32C245.269 28.88 244.819 29.325 244.249 29.655C243.689 29.985 243.064 30.15 242.374 30.15ZM242.374 28.845C242.824 28.845 243.224 28.74 243.574 28.53C243.924 28.32 244.199 28.035 244.399 27.675C244.599 27.305 244.699 26.885 244.699 26.415C244.699 25.955 244.594 25.545 244.384 25.185C244.184 24.825 243.909 24.545 243.559 24.345C243.219 24.135 242.824 24.03 242.374 24.03C241.924 24.03 241.524 24.135 241.174 24.345C240.824 24.545 240.549 24.825 240.349 25.185C240.149 25.545 240.049 25.955 240.049 26.415C240.049 26.885 240.149 27.305 240.349 27.675C240.549 28.035 240.824 28.32 241.174 28.53C241.524 28.74 241.924 28.845 242.374 28.845ZM80.4483 49V38.89H81.7983V49H80.4483ZM78.6933 43.105V41.875H83.5533V43.105H78.6933ZM90.1032 49V44.845C90.1032 44.305 89.9332 43.86 89.5932 43.51C89.2532 43.16 88.8132 42.985 88.2732 42.985C87.9132 42.985 87.5932 43.065 87.3132 43.225C87.0332 43.385 86.8132 43.605 86.6532 43.885C86.4932 44.165 86.4132 44.485 86.4132 44.845L85.8582 44.53C85.8582 43.99 85.9782 43.51 86.2182 43.09C86.4582 42.67 86.7932 42.34 87.2232 42.1C87.6532 41.85 88.1382 41.725 88.6782 41.725C89.2182 41.725 89.6932 41.845 90.1032 42.085C90.5232 42.325 90.8532 42.66 91.0932 43.09C91.3332 43.52 91.4532 44.015 91.4532 44.575V49H90.1032ZM85.0632 49V38.29H86.4132V49H85.0632ZM96.7685 49.15C96.0585 49.15 95.4185 48.99 94.8485 48.67C94.2785 48.34 93.8285 47.895 93.4985 47.335C93.1685 46.775 93.0035 46.14 93.0035 45.43C93.0035 44.73 93.1635 44.1 93.4835 43.54C93.8135 42.98 94.2535 42.54 94.8035 42.22C95.3635 41.89 95.9885 41.725 96.6785 41.725C97.3385 41.725 97.9185 41.875 98.4185 42.175C98.9285 42.475 99.3235 42.89 99.6035 43.42C99.8935 43.95 100.039 44.55 100.039 45.22C100.039 45.32 100.034 45.43 100.024 45.55C100.014 45.66 99.9935 45.79 99.9635 45.94H93.9485V44.815H99.2435L98.7485 45.25C98.7485 44.77 98.6635 44.365 98.4935 44.035C98.3235 43.695 98.0835 43.435 97.7735 43.255C97.4635 43.065 97.0885 42.97 96.6485 42.97C96.1885 42.97 95.7835 43.07 95.4335 43.27C95.0835 43.47 94.8135 43.75 94.6235 44.11C94.4335 44.47 94.3385 44.895 94.3385 45.385C94.3385 45.885 94.4385 46.325 94.6385 46.705C94.8385 47.075 95.1235 47.365 95.4935 47.575C95.8635 47.775 96.2885 47.875 96.7685 47.875C97.1685 47.875 97.5335 47.805 97.8635 47.665C98.2035 47.525 98.4935 47.315 98.7335 47.035L99.6035 47.92C99.2635 48.32 98.8435 48.625 98.3435 48.835C97.8535 49.045 97.3285 49.15 96.7685 49.15ZM110.046 49V44.845C110.046 44.305 109.876 43.86 109.536 43.51C109.196 43.16 108.756 42.985 108.216 42.985C107.856 42.985 107.536 43.065 107.256 43.225C106.976 43.385 106.756 43.605 106.596 43.885C106.436 44.165 106.356 44.485 106.356 44.845L105.801 44.53C105.801 43.99 105.921 43.51 106.161 43.09C106.401 42.67 106.736 42.34 107.166 42.1C107.596 41.85 108.081 41.725 108.621 41.725C109.161 41.725 109.636 41.86 110.046 42.13C110.466 42.4 110.796 42.755 111.036 43.195C111.276 43.625 111.396 44.085 111.396 44.575V49H110.046ZM105.006 49V41.875H106.356V49H105.006ZM116.711 49.15C116.001 49.15 115.361 48.99 114.791 48.67C114.221 48.34 113.771 47.895 113.441 47.335C113.111 46.775 112.946 46.14 112.946 45.43C112.946 44.73 113.106 44.1 113.426 43.54C113.756 42.98 114.196 42.54 114.746 42.22C115.306 41.89 115.931 41.725 116.621 41.725C117.281 41.725 117.861 41.875 118.361 42.175C118.871 42.475 119.266 42.89 119.546 43.42C119.836 43.95 119.981 44.55 119.981 45.22C119.981 45.32 119.976 45.43 119.966 45.55C119.956 45.66 119.936 45.79 119.906 45.94H113.891V44.815H119.186L118.691 45.25C118.691 44.77 118.606 44.365 118.436 44.035C118.266 43.695 118.026 43.435 117.716 43.255C117.406 43.065 117.031 42.97 116.591 42.97C116.131 42.97 115.726 43.07 115.376 43.27C115.026 43.47 114.756 43.75 114.566 44.11C114.376 44.47 114.281 44.895 114.281 45.385C114.281 45.885 114.381 46.325 114.581 46.705C114.781 47.075 115.066 47.365 115.436 47.575C115.806 47.775 116.231 47.875 116.711 47.875C117.111 47.875 117.476 47.805 117.806 47.665C118.146 47.525 118.436 47.315 118.676 47.035L119.546 47.92C119.206 48.32 118.786 48.625 118.286 48.835C117.796 49.045 117.271 49.15 116.711 49.15ZM126.101 49L123.881 45.88L123.626 45.64L120.821 41.875H122.456L124.481 44.65L124.736 44.86L127.736 49H126.101ZM120.686 49L123.626 45.04L124.391 46.03L122.276 49H120.686ZM124.841 45.625L124.061 44.665L126.026 41.875H127.601L124.841 45.625ZM129.954 49V38.89H131.304V49H129.954ZM128.199 43.105V41.875H133.059V43.105H128.199ZM137.877 49V38.29H139.227V49H137.877ZM144.689 49.15C143.979 49.15 143.339 48.99 142.769 48.67C142.199 48.34 141.749 47.895 141.419 47.335C141.089 46.775 140.924 46.14 140.924 45.43C140.924 44.73 141.084 44.1 141.404 43.54C141.734 42.98 142.174 42.54 142.724 42.22C143.284 41.89 143.909 41.725 144.599 41.725C145.259 41.725 145.839 41.875 146.339 42.175C146.849 42.475 147.244 42.89 147.524 43.42C147.814 43.95 147.959 44.55 147.959 45.22C147.959 45.32 147.954 45.43 147.944 45.55C147.934 45.66 147.914 45.79 147.884 45.94H141.869V44.815H147.164L146.669 45.25C146.669 44.77 146.584 44.365 146.414 44.035C146.244 43.695 146.004 43.435 145.694 43.255C145.384 43.065 145.009 42.97 144.569 42.97C144.109 42.97 143.704 43.07 143.354 43.27C143.004 43.47 142.734 43.75 142.544 44.11C142.354 44.47 142.259 44.895 142.259 45.385C142.259 45.885 142.359 46.325 142.559 46.705C142.759 47.075 143.044 47.365 143.414 47.575C143.784 47.775 144.209 47.875 144.689 47.875C145.089 47.875 145.454 47.805 145.784 47.665C146.124 47.525 146.414 47.315 146.654 47.035L147.524 47.92C147.184 48.32 146.764 48.625 146.264 48.835C145.774 49.045 145.249 49.15 144.689 49.15ZM151.947 49L148.677 41.875H150.177L152.802 47.89H151.932L154.572 41.875H156.012L152.742 49H151.947ZM160.372 49.15C159.662 49.15 159.022 48.99 158.452 48.67C157.882 48.34 157.432 47.895 157.102 47.335C156.772 46.775 156.607 46.14 156.607 45.43C156.607 44.73 156.767 44.1 157.087 43.54C157.417 42.98 157.857 42.54 158.407 42.22C158.967 41.89 159.592 41.725 160.282 41.725C160.942 41.725 161.522 41.875 162.022 42.175C162.532 42.475 162.927 42.89 163.207 43.42C163.497 43.95 163.642 44.55 163.642 45.22C163.642 45.32 163.637 45.43 163.627 45.55C163.617 45.66 163.597 45.79 163.567 45.94H157.552V44.815H162.847L162.352 45.25C162.352 44.77 162.267 44.365 162.097 44.035C161.927 43.695 161.687 43.435 161.377 43.255C161.067 43.065 160.692 42.97 160.252 42.97C159.792 42.97 159.387 43.07 159.037 43.27C158.687 43.47 158.417 43.75 158.227 44.11C158.037 44.47 157.942 44.895 157.942 45.385C157.942 45.885 158.042 46.325 158.242 46.705C158.442 47.075 158.727 47.365 159.097 47.575C159.467 47.775 159.892 47.875 160.372 47.875C160.772 47.875 161.137 47.805 161.467 47.665C161.807 47.525 162.097 47.315 162.337 47.035L163.207 47.92C162.867 48.32 162.447 48.625 161.947 48.835C161.457 49.045 160.932 49.15 160.372 49.15ZM165.302 49V38.29H166.652V49H165.302Z" fill="#1F314F"/>
</svg>
